<?xml version="1.0" encoding="UTF-8"?>
<svg width="1087px" height="313px" viewBox="0 0 1087 313" version="1.1" xmlns="http://www.w3.org/2000/svg" xmlns:xlink="http://www.w3.org/1999/xlink">
    <!-- Generator: Sketch 55.2 (78181) - https://sketchapp.com -->
    <title>cartobio</title>
    <desc>Created with Sketch.</desc>
    <g id="Page-1" stroke="none" stroke-width="1" fill="none" fill-rule="evenodd">
        <g id="cartobio">
            <path d="M178.124,1.9 C177.946,2.175 177.8,57.281 177.8,124.358 L177.8,246.316 L175.8,246.876 C150.691,253.915 142.35,284.309 160.489,302.666 C162.588,304.789 168.24,309 168.991,309 C169.111,309 169.972,309.341 170.904,309.757 C177.198,312.566 186.035,313.247 192.6,311.43 C223.13,302.979 226.233,261.806 197.337,248.571 C195.931,247.927 194.523,247.4 194.209,247.4 C193.214,247.4 191.622,246.503 191.438,245.839 C191.341,245.488 191.138,190.48 190.988,123.6 C190.838,56.72 190.633,1.865 190.534,1.7 C190.205,1.154 178.484,1.343 178.124,1.9 M190.716,260.164 C208.808,266.82 208.704,291.772 190.556,298.264 C180.039,302.026 169.15,296.431 164.74,285 C163.932,282.906 164.041,275.307 164.914,272.88 C168.755,262.198 180.505,256.408 190.716,260.164" id="Shape" fill="#24449C" fill-rule="nonzero"></path>
            <path d="M335.6,48.586 C333.73,49.211 327.61,51.194 322,52.994 C316.39,54.794 310.27,56.771 308.4,57.389 C306.53,58.006 301.49,59.628 297.2,60.992 C292.91,62.357 287.87,63.98 286,64.6 C284.13,65.22 279.09,66.84 274.8,68.2 C270.51,69.56 265.47,71.182 263.6,71.804 C261.73,72.427 256.69,74.047 252.4,75.405 C248.11,76.763 243.07,78.383 241.2,79.005 C239.33,79.627 234.29,81.242 230,82.594 C220.53,85.579 220.091,85.739 218.672,86.717 C217.797,87.32 206,110.126 206,111.214 C206,111.267 202.715,117.946 198.7,126.055 L191.4,140.8 L191.287,156.036 L191.173,171.272 L223.337,171.556 C241.028,171.712 256.019,171.713 256.651,171.557 C258.728,171.045 259.421,170.28 268.252,158.743 C273.064,152.458 278.71,145.105 280.8,142.402 C282.89,139.699 288.83,131.96 294,125.204 C299.17,118.448 305.11,110.708 307.2,108.004 C309.29,105.3 315.23,97.56 320.4,90.804 C325.57,84.048 331.51,76.307 333.6,73.601 C347.522,55.578 347.194,56.061 347.198344,53.594 C347.206,48.12 342.752,46.197 335.6,48.586 M3.55,61.176 C1.843,62.336 0.800999094,64.341 0.800999094,66.46 C0.800999094,68.246 0.784,68.21 10.51,85.8 C14.464,92.95 18.194,99.7 18.8,100.8 C19.406,101.9 23.186,108.74 27.2,116 C31.214,123.26 34.994,130.1 35.6,131.2 C36.206,132.3 39.986,139.14 44,146.4 C48.014,153.66 51.794,160.5 52.4,161.6 C53.006,162.7 56.786,169.54 60.8,176.8 C69.875,193.215 69.151,191.903 73.553,199.888 C78.903,209.59 76.766,208.531 96,211.013 C97.87,211.254 100.66,211.614 102.2,211.813 C103.74,212.012 106.485,212.36 108.3,212.587 C113.573,213.247 118.002,213.818 120.8,214.2 C123.599,214.582 128.084,215.161 133.2,215.8 C134.96,216.02 137.885,216.392 139.7,216.626 C141.515,216.86 144.26,217.214 145.8,217.413 C147.34,217.612 150.13,217.972 152,218.213 C153.87,218.454 156.66,218.814 158.2,219.013 C159.74,219.212 162.53,219.57 164.4,219.81 C166.27,220.049 168.97,220.408 170.4,220.607 C171.83,220.805 174.125,221.083 175.5,221.223 L178,221.479 L178,192.834 C178,174.79 177.854,163.932 177.607,163.495 C177.39,163.113 176.488,160.19 175.603,157 C174.717,153.81 173.814,150.57 173.597,149.8 C173.034,147.804 169.125,133.774 166.576,124.6 C163.229,112.553 163.214,112.51 161.825,111.2 C161.125,110.54 159.393,109.61 157.976,109.134 C156.559,108.657 147.03,105.534 136.8,102.192 C126.57,98.851 116.13,95.433 113.6,94.597 C107.143,92.464 84.07,84.895 72.4,81.083 C58.728,76.617 27.062,66.254 17.003,62.955 C7.568,59.859 5.826,59.629 3.55,61.176 M299.597048,74.1 C299.596,74.265 295.706,77.19 290.953,80.6 C273.785,92.917 251.14,109.184 238.472,118.298 C231.362,123.414 224.396,128.41 222.992,129.4 C221.588,130.39 217.382,133.405 213.645,136.1 C209.908,138.795 206.66,141 206.426,141 C205.582,141 204.651,143.028 219.274,113 C222.006,107.39 224.86,101.488 225.616,99.885 L226.991,96.97 L236.995,93.748 C242.498,91.975 248.53,90.022 250.4,89.407 C252.27,88.792 257.31,87.171 261.6,85.806 C265.89,84.441 272.1,82.45 275.4,81.381 C278.7,80.313 283.74,78.689 286.6,77.772 C289.46,76.856 293.33,75.599 295.2,74.978 C298.82,73.778 299.602,73.622 299.597048,74.1 M309.308,84.1 C309.161,84.485 307.412,86.894 305.421,89.453 C303.429,92.013 297.57,99.636 292.4,106.393 C287.23,113.151 281.29,120.892 279.2,123.596 C277.11,126.3 271.17,134.042 266,140.801 C260.83,147.56 255.561,154.42 254.292,156.045 L251.983,159 L239.692,158.999 C221.386,158.998 205.149,158.552 205.315,158.054 C205.392,157.825 212.192,152.803 220.427,146.896 C228.662,140.988 238.73,133.766 242.8,130.847 C246.87,127.928 254.79,122.239 260.4,118.204 C266.01,114.169 275.37,107.447 281.2,103.266 C297.53,91.555 301.058,89.013 304.974,86.137 C308.742,83.369 309.771,82.886 309.308,84.1 M54.588,88.638 C62.075,91.078 71.89,94.299 76.4,95.795 C80.91,97.291 88.56,99.804 93.4,101.38 C98.24,102.956 111.56,107.313 123,111.064 C134.44,114.814 145.51,118.439 147.6,119.12 C149.69,119.8 151.595,120.499 151.834,120.673 C152.414,121.095 152.537,121.511 159.605,147 C160.978,151.95 163.137,159.69 164.405,164.2 C165.672,168.71 167.83,176.45 169.202,181.4 C170.573,186.35 172.214,192.227 172.848,194.46 C174.067,198.754 174.222,199.8 173.643,199.8 C173.344,199.8 162.665,190.655 141.2,172.016 C139.11,170.201 129.75,162.103 120.4,154.02 C111.05,145.936 101.6,137.756 99.4,135.841 C97.2,133.926 85.95,124.188 74.4,114.201 C55.747,98.072 43.298,87.278 41.129,85.353 C39.149,83.596 39.053,83.573 54.588,88.638 M37.563,99.2 C48.962,109.019 73.455,130.194 81.962,137.584 C84.251,139.573 88.314,143.09 90.989,145.4 C99.114,152.415 119.138,169.741 123.562,173.584 C125.851,175.573 129.913,179.09 132.587,181.4 C160.837,205.798 162.455,207.293 159.7,206.436 C159.315,206.317 157.56,206.047 155.8,205.838 C152.607,205.457 136.665,203.409 130.6,202.6 C128.84,202.365 123.26,201.645 118.2,201 C113.14,200.355 107.56,199.634 105.8,199.398 C104.04,199.161 101.25,198.804 99.6,198.603 C91.089,197.566 86.575,196.906 86.354,196.666 C86.219,196.52 85.428,195.14 84.595,193.6 C83.763,192.06 79.847,184.95 75.892,177.8 C71.937,170.65 68.206,163.9 67.6,162.8 C66.994,161.7 63.214,154.86 59.2,147.6 C55.186,140.34 51.406,133.5 50.8,132.4 C50.194,131.3 46.414,124.46 42.4,117.2 C38.386,109.94 34.605,103.1 33.999,102 C33.392,100.9 32.064,98.493 31.048,96.651 C30.032,94.81 29.2,93.033 29.2,92.702 C29.2,91.955 28.702,91.568 37.563,99.2" id="Shape" fill="#EC262E" fill-rule="nonzero"></path>
            <path d="M177.625,1.57 C177.263,2.006 177.205,20.702 177.378,81.27 C177.577,150.814 177.533,160.255 177.02,159.2 C176.699,158.54 176.428,158.159 176.418,158.354 C176.384,159.03 177.337,162.003 177.716,162.4 C177.958,162.654 178.019,133.432 177.883,82.521 C177.708,16.937 177.764,2.162 178.188,1.81 C178.523,1.532 180.828,1.418 184.654,1.489 L190.6,1.6 L190.841,67.4 C191.133,146.852 191.042,140.029 191.8,139.4 C192.425,138.881 192.65,137.998 192.066,138.359 C191.647,138.618 191.201,87.306 191.2,38.933 C191.2,18.766 191.091,1.981 190.957,1.633 C190.615,0.74 178.362,0.682 177.625,1.57 M338.71,46.93 C338.33,47.081 339.257,47.203 340.77,47.202 C342.282,47.201 343.313,47.068 343.06,46.906 C342.492,46.543 339.646,46.559 338.71,46.93 M335.8,47.8 L335,48.144 L335.8,48.166 C336.24,48.178 336.87,48.013 337.2,47.8 C337.995,47.286 336.996,47.286 335.8,47.8 M344.2,47.657 C346.237,49.464 346.987,49.991 346.202,49.063 C345.766,48.548 345.047,47.941 344.604,47.714 C344.162,47.487 343.98,47.462 344.2,47.657 M323.6,51.8 C323.067,52.145 323.067,52.188 323.6,52.188 C323.93,52.188 324.47,52.013 324.8,51.8 C325.333,51.455 325.333,51.412 324.8,51.412 C324.47,51.412 323.93,51.587 323.6,51.8 M347.701,53.6 C347.705,54.48 347.787,54.793 347.883,54.295 C347.979,53.798 347.975,53.078 347.875,52.695 C347.775,52.313 347.696,52.72 347.701,53.6 M311,55.8 C310.496,56.017 310.422,56.144 310.8,56.144 C311.13,56.144 311.76,55.989 312.2,55.8 C312.704,55.583 312.778,55.456 312.4,55.456 C312.07,55.456 311.44,55.611 311,55.8 M347.015,56.153 C346.812,56.793 343.353,61.585 340.702,64.9 C340.482,65.175 340.408,65.4 340.536,65.4 C341.216,65.4 347.868,55.934 347.469,55.536 C347.361,55.428 347.157,55.705 347.015,56.153 M4.94,59.706 C4.687,59.868 5.718,60.001 7.23,60.002 C8.743,60.003 9.67,59.881 9.29,59.73 C8.354,59.359 5.508,59.343 4.94,59.706 M2.487,61.3 C1.53,62.235 1.514,62.281 2.381,61.606 C4.088,60.276 4.169,60.2 3.886,60.2 C3.736,60.2 3.106,60.695 2.487,61.3 M13.2,61.4 C13.53,61.613 14.07,61.788 14.4,61.788 C14.933,61.788 14.933,61.745 14.4,61.4 C14.07,61.187 13.53,61.012 13.2,61.012 C12.667,61.012 12.667,61.055 13.2,61.4 M15.6,62.2 C15.93,62.413 16.56,62.578 17,62.566 L17.8,62.544 L17,62.2 C15.804,61.686 14.805,61.686 15.6,62.2 M287.4,63.4 C286.3,63.806 285.636,64.152 285.925,64.169 C286.534,64.205 290.4,62.983 290.4,62.754 C290.4,62.451 289.369,62.673 287.4,63.4 M0.101,66.4 C0.105,67.28 0.187,67.593 0.283,67.095 C0.379,66.598 0.375,65.878 0.275,65.495 C0.175,65.113 0.096,65.52 0.101,66.4 M278.8,66.2 C278.267,66.545 278.267,66.588 278.8,66.588 C279.13,66.588 279.67,66.413 280,66.2 C280.533,65.855 280.533,65.812 280,65.812 C279.67,65.812 279.13,65.987 278.8,66.2 M338.577,67.7 C336.417,70.4 336.276,70.6 336.528,70.6 C336.652,70.6 337.584,69.52 338.6,68.2 C340.787,65.358 340.768,64.96 338.577,67.7 M276.2,67 C275.696,67.217 275.622,67.344 276,67.344 C276.33,67.344 276.96,67.189 277.4,67 C277.904,66.783 277.978,66.656 277.6,66.656 C277.27,66.656 276.64,66.811 276.2,67 M37.6,69.4 C37.93,69.613 38.47,69.788 38.8,69.788 C39.333,69.788 39.333,69.745 38.8,69.4 C38.47,69.187 37.93,69.012 37.6,69.012 C37.067,69.012 37.067,69.055 37.6,69.4 M265,70.6 C263.9,71.006 263.236,71.352 263.525,71.369 C264.134,71.405 268,70.183 268,69.954 C268,69.651 266.969,69.873 265,70.6 M2.22,72.24 C2.789,73.362 3.334,74.199 3.433,74.101 C3.623,73.91 1.651,70.2 1.359,70.2 C1.264,70.2 1.652,71.118 2.22,72.24 M334.577,72.9 C332.417,75.6 332.276,75.8 332.528,75.8 C332.652,75.8 333.584,74.72 334.6,73.4 C336.787,70.558 336.768,70.16 334.577,72.9 M253.8,74.2 L253,74.544 L253.8,74.566 C254.24,74.578 254.87,74.413 255.2,74.2 C255.995,73.686 254.996,73.686 253.8,74.2 M4.909,77 C5.672,78.43 6.514,80.02 6.78,80.534 C7.047,81.048 7.348,81.385 7.451,81.283 C7.553,81.181 7.088,80.167 6.418,79.031 C5.748,77.895 5.196,76.838 5.191,76.682 C5.186,76.527 4.809,75.95 4.352,75.4 C3.865,74.813 4.095,75.473 4.909,77 M54.8,75 C55.13,75.213 55.67,75.388 56,75.388 C56.533,75.388 56.533,75.345 56,75 C55.67,74.787 55.13,74.612 54.8,74.612 C54.267,74.612 54.267,74.655 54.8,75 M296.522,74.857 C296.26,74.964 296.141,75.302 296.258,75.607 C296.428,76.05 296.625,76.066 297.236,75.685 C298.516,74.885 297.981,74.264 296.522,74.857 M57.2,75.8 C57.53,76.013 58.07,76.188 58.4,76.188 C58.933,76.188 58.933,76.145 58.4,75.8 C58.07,75.587 57.53,75.412 57.2,75.412 C56.667,75.412 56.667,75.455 57.2,75.8 M59.6,76.6 C59.93,76.813 60.47,76.988 60.8,76.988 C61.333,76.988 61.333,76.945 60.8,76.6 C60.47,76.387 59.93,76.212 59.6,76.212 C59.067,76.212 59.067,76.255 59.6,76.6 M331.517,76.9 C330.219,78.397 324.37,86.2 324.545,86.2 C324.647,86.2 326.302,84.175 328.221,81.7 C330.141,79.225 331.889,76.975 332.105,76.7 C332.706,75.935 332.206,76.105 331.517,76.9 M63.4,77.8 C64.5,78.206 65.67,78.538 66,78.538 C66.33,78.538 65.7,78.206 64.6,77.8 C63.5,77.394 62.33,77.062 62,77.062 C61.67,77.062 62.3,77.394 63.4,77.8 M242.6,77.8 C241.5,78.206 240.836,78.552 241.125,78.569 C241.734,78.605 245.6,77.383 245.6,77.154 C245.6,76.851 244.569,77.073 242.6,77.8 M293,78.232 C290.63,80.024 290.327,80.502 292.48,79.054 C293.513,78.359 294.469,77.612 294.603,77.395 C294.974,76.794 294.739,76.917 293,78.232 M281.2,79.8 C280.405,80.314 281.404,80.314 282.6,79.8 L283.4,79.456 L282.6,79.434 C282.16,79.422 281.53,79.587 281.2,79.8 M278.8,80.6 C278.267,80.945 278.267,80.988 278.8,80.988 C279.13,80.988 279.67,80.813 280,80.6 C280.533,80.255 280.533,80.212 280,80.212 C279.67,80.212 279.13,80.387 278.8,80.6 M288.6,81.432 C286.23,83.224 285.927,83.702 288.08,82.254 C289.113,81.559 290.069,80.812 290.203,80.595 C290.574,79.994 290.339,80.117 288.6,81.432 M231.4,81.4 L230.6,81.744 L231.4,81.766 C231.84,81.778 232.47,81.613 232.8,81.4 C233.595,80.886 232.596,80.886 231.4,81.4 M8.64,83.802 C9.239,84.903 9.793,85.74 9.871,85.663 C10.043,85.49 8.008,81.8 7.741,81.8 C7.636,81.8 8.04,82.701 8.64,83.802 M283.657,84.976 C280.557,87.219 280.15,87.836 283.122,85.79 C285.28,84.304 286.387,83.365 285.924,83.413 C285.856,83.42 284.836,84.123 283.657,84.976 M221.07,84.781 C220.229,85.081 219.419,85.461 219.27,85.627 C219.122,85.792 219.36,85.789 219.8,85.62 C220.24,85.451 221.185,85.144 221.9,84.938 C222.615,84.731 223.2,84.481 223.2,84.381 C223.2,84.101 222.729,84.189 221.07,84.781 M306.3,85.626 C305.255,86.386 304.4,87.117 304.4,87.251 C304.4,87.385 305.018,87.024 305.773,86.447 C307.361,85.237 307.926,85.096 307.172,86.1 C306.87,86.502 307.04,86.435 307.571,85.942 C309.2,84.428 308.266,84.195 306.3,85.626 M41.6,85.125 C41.6,85.194 42.182,85.779 42.894,86.425 C43.605,87.071 43.847,87.195 43.432,86.7 C42.69,85.817 42.691,85.8 43.438,85.794 C44.076,85.789 44.103,85.725 43.6,85.4 C43.043,85.04 41.6,84.842 41.6,85.125 M217.416,87.053 C216.368,88.299 215.112,90.528 214.395,92.414 C213.668,94.325 214.381,93.37 215.525,90.9 C216.161,89.525 217.175,87.815 217.777,87.1 C218.379,86.385 218.781,85.8 218.671,85.8 C218.561,85.8 217.997,86.364 217.416,87.053 M10.6,87.4 C10.941,88.06 11.311,88.6 11.421,88.6 C11.531,88.6 11.341,88.06 11,87.4 C10.659,86.74 10.289,86.2 10.179,86.2 C10.069,86.2 10.259,86.74 10.6,87.4 M258.8,87 C258.005,87.514 259.004,87.514 260.2,87 L261,86.656 L260.2,86.634 C259.76,86.622 259.13,86.787 258.8,87 M323.544,87.3 C322.275,88.832 321.819,89.542 322.281,89.265 C322.793,88.958 324.569,86.6 324.289,86.6 C324.198,86.6 323.863,86.915 323.544,87.3 M304.593,89.5 C303.573,90.875 303.306,91.37 303.999,90.6 C305.531,88.897 306.929,87 306.651,87 C306.538,87 305.612,88.125 304.593,89.5 M44.4278784,87.681 C44.443,87.856 47.084,90.239 50.297,92.975 C53.51,95.711 56.023,97.762 55.882,97.532 C55.459,96.848 44.398,87.334 44.4278784,87.681 M278,89.042 C274.86,91.335 274.531,91.85 277.522,89.79 C279.666,88.314 280.806,87.348 280.324,87.418 C280.256,87.428 279.21,88.159 278,89.042 M301.657,88.976 C300.478,89.828 299.308,90.754 299.057,91.032 C298.555,91.589 302.643,88.791 303.586,87.933 C304.658,86.957 303.825,87.408 301.657,88.976 M12.64,91.002 C13.239,92.103 13.793,92.94 13.871,92.863 C14.043,92.69 12.008,89 11.741,89 C11.636,89 12.04,89.901 12.64,91.002 M101.2,90.2 C101.53,90.413 102.07,90.588 102.4,90.588 C102.933,90.588 102.933,90.545 102.4,90.2 C102.07,89.987 101.53,89.812 101.2,89.812 C100.667,89.812 100.667,89.855 101.2,90.2 M318.4,93.856 C316.75,96.061 315.056,98.346 314.635,98.933 L313.87,100 L314.67,99.2 C315.962,97.909 322.053,89.798 321.712,89.8238759 C321.54,89.837 320.05,91.651 318.4,93.856 M103.6,91 C103.93,91.213 104.47,91.388 104.8,91.388 C105.333,91.388 105.333,91.345 104.8,91 C104.47,90.787 103.93,90.612 103.6,90.612 C103.067,90.612 103.067,90.655 103.6,91 M106,91.8 C106.33,92.013 106.87,92.188 107.2,92.188 C107.733,92.188 107.733,92.145 107.2,91.8 C106.87,91.587 106.33,91.412 106,91.412 C105.467,91.412 105.467,91.455 106,91.8 M272.4,93.042 C269.264,95.332 268.958,95.808 271.875,93.858 C273.237,92.948 274.462,92.023 274.599,91.802 C274.974,91.194 274.782,91.303 272.4,93.042 M296.057,92.976 C294.878,93.828 293.708,94.754 293.457,95.032 C292.955,95.589 297.043,92.791 297.986,91.933 C299.058,90.957 298.225,91.408 296.057,92.976 M108.6,92.6 C109.04,92.789 109.67,92.944 110,92.944 C110.378,92.944 110.304,92.817 109.8,92.6 C109.36,92.411 108.73,92.256 108.4,92.256 C108.022,92.256 108.096,92.383 108.6,92.6 M300.6,94.6 C299.584,95.92 298.899,96.998 299.077,96.9950122 C299.254,96.992 299.798,96.407 300.283,95.695 C300.769,94.983 301.549,93.905 302.017,93.3 C302.484,92.695 302.772,92.2 302.657,92.2 C302.541,92.2 301.616,93.28 300.6,94.6 M14.6,94.6 C14.941,95.26 15.311,95.8 15.421,95.8 C15.531,95.8 15.341,95.26 15,94.6 C14.659,93.94 14.289,93.4 14.179,93.4 C14.069,93.4 14.259,93.94 14.6,94.6 M30,93.75 C30,94.182 32.003,97.8 32.242,97.8 C32.338,97.8 32.049,97.08 31.6,96.2 C30.459,93.964 30.769,94.127 35.455,98.229 C37.735,100.225 39.591,101.71 39.5810801,101.529 C39.57,101.348 38.625,100.431 37.481,99.492 C36.336,98.552 34.32,96.803 33,95.604 C30.633,93.455 30,93.064 30,93.75 M236.6,94.2 C236.096,94.417 236.022,94.544 236.4,94.544 C236.73,94.544 237.36,94.389 237.8,94.2 C238.304,93.983 238.378,93.856 238,93.856 C237.67,93.856 237.04,94.011 236.6,94.2 M234,95 C233.467,95.345 233.467,95.388 234,95.388 C234.33,95.388 234.87,95.213 235.2,95 C235.733,94.655 235.733,94.612 235.2,94.612 C234.87,94.612 234.33,94.787 234,95 M77.993,97.033 C80.52,97.897 82.765,98.545 82.983,98.472 C83.403,98.332 74.483,95.377 73.8,95.43 C73.58,95.447 75.467,96.168 77.993,97.033 M267.4,96.632 C265.03,98.424 264.727,98.902 266.88,97.454 C267.913,96.759 268.869,96.012 269.003,95.795 C269.374,95.194 269.139,95.317 267.4,96.632 M290.7,96.814 C289.655,97.58 288.8,98.296 288.8,98.403 C288.8,98.511 289.7,97.952 290.8,97.162 C292.509,95.934 293.123,95.368 292.7,95.41 C292.645,95.415 291.745,96.047 290.7,96.814 M296.55,99.9 C295.507,101.275 293.771,103.525 292.692,104.9 C291.614,106.275 290.882,107.389 291.066,107.376 C291.25,107.363 292.75,105.549 294.4,103.344 C296.05,101.139 297.73,98.899 298.133,98.367 C298.537,97.835 298.772,97.4 298.657,97.4 C298.541,97.4 297.593,98.525 296.55,99.9 M16.986,98.9 C17.335,99.615 17.706,100.2 17.81,100.2 C18.208,100.2 17.952,99.563 17.167,98.6 L16.352,97.6 L16.986,98.9 M56.427,98.06 C56.442,98.247 57.648,99.386 59.107,100.591 C60.566,101.796 61.635,102.58 61.482,102.332 C61.033,101.605 56.397,97.688 56.427,98.06 M32.4,98.35 C32.4,98.641 34.471,102.2 34.641,102.2 C34.736,102.2 34.357,101.3 33.8,100.2 C32.931,98.486 32.4,97.783 32.4,98.35 M209.881,101.621 C209.066,103.267 208.409,104.745 208.42,104.907 C208.431,105.068 209.162,103.786 210.046,102.059 C210.929,100.331 211.586,98.853 211.506,98.773 C211.427,98.693 210.695,99.975 209.881,101.621 M260.233,101.797 C257.831,103.545 255.671,105.192 255.433,105.458 C255.195,105.724 255.99,105.245 257.2,104.394 C258.41,103.542 260.521,102.059 261.892,101.097 C264.014,99.609 265.195,98.572 264.724,98.61 C264.656,98.616 262.635,100.05 260.233,101.797 M285.1,100.814 C284.055,101.58 283.2,102.307 283.2,102.429 C283.2,102.687 286.774,100.166 287.057,99.709 C287.374,99.195 287.081,99.36 285.1,100.814 M312.177,102.1 C310.017,104.8 309.876,105 310.128,105 C310.252,105 311.184,103.92 312.2,102.6 C314.387,99.758 314.368,99.36 312.177,102.1 M19.02,102.64 C19.589,103.762 20.134,104.599 20.233,104.501 C20.423,104.31 18.451,100.6 18.159,100.6 C18.064,100.6 18.452,101.518 19.02,102.64 M41.6,103.408 C45.162,106.748 57.199,117.037 57.1770601,116.722 C57.164,116.545 54.869,114.463 52.077,112.095 C49.285,109.728 46.28,107.151 45.4,106.37 C44.52,105.588 42.9,104.223 41.8,103.335 L39.8,101.721 L41.6,103.408 M34.809,102.9 C34.814,103.065 35.185,103.65 35.633,104.2 L36.448,105.2 L35.814,103.9 C35.211,102.665 34.789,102.245 34.809,102.9 M62.0278784,102.881 C62.043,103.056 64.684,105.439 67.897,108.175 C71.11,110.911 73.623,112.962 73.482,112.732 C73.059,112.048 61.998,102.534 62.0278784,102.881 M280.707,103.926 C279.666,104.626 278.811,105.346 278.80698,105.525 C278.8,105.856 282.309,103.471 282.657,102.909 C282.942,102.447 282.769,102.537 280.707,103.926 M221.84,108.44 C219.144,114.025 218.912,115.026 221.479,110 C223.5,106.042 224.5,103.8 224.245,103.8 C224.154,103.8 223.072,105.888 221.84,108.44 M21.709,107.4 C22.472,108.83 23.314,110.42 23.58,110.934 C23.847,111.448 24.148,111.785 24.251,111.683 C24.353,111.581 23.888,110.567 23.218,109.431 C22.548,108.295 21.996,107.238 21.991,107.082 C21.986,106.927 21.609,106.35 21.152,105.8 C20.665,105.213 20.895,105.873 21.709,107.4 M103.4,105.4 C104.596,105.914 105.595,105.914 104.8,105.4 C104.47,105.187 103.84,105.022 103.4,105.034 L102.6,105.056 L103.4,105.4 M147.6,105.4 C147.93,105.613 148.47,105.788 148.8,105.788 C149.333,105.788 149.333,105.745 148.8,105.4 C148.47,105.187 147.93,105.012 147.6,105.012 C147.067,105.012 147.067,105.055 147.6,105.4 M308.177,107.3 C306.017,110 305.876,110.2 306.128,110.2 C306.252,110.2 307.184,109.12 308.2,107.8 C310.387,104.958 310.368,104.56 308.177,107.3 M150,106.2 C150.33,106.413 150.87,106.588 151.2,106.588 C151.733,106.588 151.733,106.545 151.2,106.2 C150.87,105.987 150.33,105.812 150,105.812 C149.467,105.812 149.467,105.855 150,106.2 M252.457,107.376 C249.357,109.619 248.95,110.236 251.922,108.19 C254.08,106.704 255.187,105.765 254.724,105.813 C254.656,105.82 253.636,106.523 252.457,107.376 M276.229,107.208 C275.144,107.958 273.974,108.878 273.629,109.253 C272.996,109.939 276.895,107.326 277.986,106.333 C278.963,105.444 278.306,105.771 276.229,107.208 M152.4,107 C152.73,107.213 153.27,107.388 153.6,107.388 C154.133,107.388 154.133,107.345 153.6,107 C153.27,106.787 152.73,106.612 152.4,106.612 C151.867,106.612 151.867,106.655 152.4,107 M37.8,108.2 C38.141,108.86 38.511,109.4 38.621,109.4 C38.731,109.4 38.541,108.86 38.2,108.2 C37.859,107.54 37.489,107 37.379,107 C37.269,107 37.459,107.54 37.8,108.2 M154.8,107.8 C155.13,108.013 155.76,108.178 156.2,108.166 L157,108.144 L156.2,107.8 C155.004,107.286 154.005,107.286 154.8,107.8 M289.375,109.268 C288.759,110.076 288.459,110.611 288.709,110.456 C289.221,110.14 290.953,107.8 290.675,107.8 C290.576,107.8 289.991,108.461 289.375,109.268 M158.758,109.037 C159.725,109.466 160.588,109.745 160.675,109.658 C160.848,109.486 157.765,108.182 157.292,108.228 C157.131,108.244 157.791,108.608 158.758,109.037 M38.806,109.85 C38.797,110.205 40.833,113.8 41.042,113.8 C41.138,113.8 40.86,113.125 40.424,112.3 C39.478,110.511 38.815,109.506 38.806,109.85 M162.289,111.2 C162.966,112.08 163.644,113.219 163.796,113.73 C163.948,114.242 164.157,114.576 164.26,114.473 C164.632,114.101 163.277,111.577 162.182,110.6 C161.061,109.601 161.061,109.601 162.289,111.2 M246.8,111.442 C243.66,113.735 243.331,114.25 246.322,112.19 C248.466,110.714 249.606,109.748 249.124,109.818 C249.056,109.828 248.01,110.559 246.8,111.442 M270.457,111.376 C269.278,112.228 268.108,113.154 267.857,113.432 C267.355,113.989 271.443,111.191 272.386,110.333 C273.458,109.357 272.625,109.808 270.457,111.376 M305.117,111.3 C303.819,112.797 297.97,120.6 298.145,120.6 C298.247,120.6 299.902,118.575 301.821,116.1 C303.741,113.625 305.489,111.375 305.705,111.1 C306.306,110.335 305.806,110.505 305.117,111.3 M285.36,114.5 C283.872,116.425 282.102,118.713 281.427,119.585 C280.752,120.457 280.401,121.046 280.646,120.895 C281.161,120.577 288.518,111 288.247,111 C288.148,111 286.849,112.575 285.36,114.5 M25.44,114.202 C26.039,115.303 26.593,116.14 26.671,116.063 C26.843,115.89 24.808,112.2 24.541,112.2 C24.436,112.2 24.84,113.101 25.44,114.202 M74.0278783,113.281 C74.043,113.456 76.684,115.839 79.897,118.575 C83.11,121.311 85.623,123.362 85.482,123.132 C85.059,122.448 73.998,112.934 74.0278783,113.281 M202.427,116.915 C200.429,120.925 199.518,123 199.755,123 C199.986,123 204.446,113.713 204.29,113.557 C204.22,113.487 203.382,114.998 202.427,116.915 M130.2,114.2 C131.396,114.714 132.395,114.714 131.6,114.2 C131.27,113.987 130.64,113.822 130.2,113.834 L129.4,113.856 L130.2,114.2 M241.8,115.032 C239.43,116.824 239.127,117.302 241.28,115.854 C242.313,115.159 243.269,114.412 243.403,114.195 C243.774,113.594 243.539,113.717 241.8,115.032 M265.1,115.214 C264.055,115.98 263.2,116.696 263.2,116.803 C263.2,116.911 264.1,116.352 265.2,115.562 C266.909,114.334 267.523,113.768 267.1,113.81 C267.045,113.815 266.145,114.447 265.1,115.214 M41.8,115.4 C42.141,116.06 42.511,116.6 42.621,116.6 C42.731,116.6 42.541,116.06 42.2,115.4 C41.859,114.74 41.489,114.2 41.379,114.2 C41.269,114.2 41.459,114.74 41.8,115.4 M164.406,115.633 C164.409,116.055 164.595,116.67 164.818,117 C165.115,117.438 165.152,117.276 164.956,116.4 C164.627,114.929 164.398,114.61 164.406,115.633 M27.4,117.8 C27.741,118.46 28.111,119 28.221,119 C28.331,119 28.141,118.46 27.8,117.8 C27.459,117.14 27.089,116.6 26.979,116.6 C26.869,116.6 27.059,117.14 27.4,117.8 M42.806,117.05 C42.797,117.405 44.833,121 45.042,121 C45.138,121 44.86,120.325 44.424,119.5 C43.478,117.711 42.815,116.706 42.806,117.05 M57.718,117.268 C58.141,117.952 69.202,127.466 69.1721216,127.119 C69.157,126.944 66.516,124.561 63.303,121.825 C60.09,119.089 57.577,117.038 57.718,117.268 M165.206,118.433 C165.209,118.855 165.395,119.47 165.618,119.8 C165.915,120.238 165.952,120.076 165.756,119.2 C165.427,117.729 165.198,117.41 165.206,118.433 M236.2,119.032 C233.83,120.824 233.527,121.302 235.68,119.854 C236.713,119.159 237.669,118.412 237.803,118.195 C238.174,117.594 237.939,117.717 236.2,119.032 M259.5,119.214 C258.455,119.98 257.6,120.696 257.6,120.803 C257.6,120.911 258.5,120.352 259.6,119.562 C261.309,118.334 261.923,117.768 261.5,117.81 C261.445,117.815 260.545,118.447 259.5,119.214 M29.44,121.402 C30.039,122.503 30.593,123.34 30.671,123.263 C30.843,123.09 28.808,119.4 28.541,119.4 C28.436,119.4 28.84,120.301 29.44,121.402 M150.477,120.854 C151.399,121.237 152.017,121.792 152.122,122.333 L152.291,123.2 L152.346,122.31 C152.4,121.426 150.706,120.174 149.52,120.221 C149.234,120.232 149.664,120.517 150.477,120.854 M214.258,124.027 C211.789,129.135 211.917,129.43 214.445,124.458 C215.548,122.29 216.375,120.441 216.283,120.35 C216.192,120.258 215.28,121.913 214.258,124.027 M166.056,121.4 C166.056,121.73 166.211,122.36 166.4,122.8 C166.617,123.304 166.744,123.378 166.744,123 C166.744,122.67 166.589,122.04 166.4,121.6 C166.183,121.096 166.056,121.022 166.056,121.4 M231.8,122.232 C229.43,124.024 229.127,124.502 231.28,123.054 C232.313,122.359 233.269,121.612 233.403,121.395 C233.774,120.794 233.539,120.917 231.8,122.232 M254.8,122.628 C253.59,123.502 251.479,124.978 250.108,125.908 C248.738,126.839 247.613,127.756 247.607959,127.947 C247.604,128.139 248.185,127.858 248.9,127.324 C249.615,126.79 251.775,125.218 253.7,123.83 C256.68,121.682 257.599,120.922 257.1,121.019 C257.045,121.03 256.01,121.754 254.8,122.628 M297.144,121.7 C295.875,123.232 295.419,123.942 295.881,123.665 C296.393,123.358 298.169,121 297.889,121 C297.798,121 297.463,121.315 297.144,121.7 M45.25,121.609 C45.577,122.5 48.869,128.2 49.056,128.2 C49.301,128.2 46.038,122.158 45.492,121.6 C45.231,121.334 45.15,121.336 45.25,121.609 M278.193,123.9 C277.173,125.275 276.906,125.77 277.599,125 C279.131,123.297 280.529,121.4 280.251,121.4 C280.138,121.4 279.212,122.525 278.193,123.9 M86.0278783,123.681 C86.043,123.856 88.684,126.239 91.897,128.975 C95.11,131.711 97.623,133.762 97.482,133.532 C97.059,132.848 85.998,123.334 86.0278783,123.681 M152.644,124.4 C152.973,125.871 153.202,126.19 153.194,125.167 C153.191,124.745 153.005,124.13 152.782,123.8 C152.485,123.362 152.448,123.524 152.644,124.4 M31.4,125 C31.741,125.66 32.111,126.2 32.221,126.2 C32.331,126.2 32.141,125.66 31.8,125 C31.459,124.34 31.089,123.8 30.979,123.8 C30.869,123.8 31.059,124.34 31.4,125 M166.856,124.2 C166.856,124.53 167.011,125.16 167.2,125.6 C167.417,126.104 167.544,126.178 167.544,125.8 C167.544,125.47 167.389,124.84 167.2,124.4 C166.983,123.896 166.856,123.822 166.856,124.2 M226.857,125.776 C223.757,128.019 223.35,128.636 226.322,126.59 C228.48,125.104 229.587,124.165 229.124,124.213 C229.056,124.22 228.036,124.923 226.857,125.776 M292,128.256 C290.35,130.461 288.656,132.746 288.235,133.333 L287.47,134.4 L288.27,133.6 C289.562,132.309 295.653,124.198 295.312,124.223876 C295.14,124.237 293.65,126.051 292,128.256 M153.234,126.6 C153.246,126.93 153.411,127.56 153.6,128 L153.944,128.8 L153.966,128 C153.978,127.56 153.813,126.93 153.6,126.6 C153.255,126.067 153.215,126.067 153.234,126.6 M167.656,127 C167.656,127.33 167.811,127.96 168,128.4 C168.217,128.904 168.344,128.978 168.344,128.6 C168.344,128.27 168.189,127.64 168,127.2 C167.783,126.696 167.656,126.622 167.656,127 M274.2,129 C273.184,130.32 272.499,131.398 272.677,131.395012 C272.854,131.392 273.398,130.807 273.883,130.095 C274.369,129.383 275.149,128.305 275.617,127.7 C276.084,127.095 276.372,126.6 276.257,126.6 C276.141,126.6 275.216,127.68 274.2,129 M71.04,128.861 C74.545,132.151 81.199,137.842 81.1741399,137.529 C81.16,137.348 80.305,136.501 79.274,135.648 C78.244,134.794 76.23,133.061 74.8,131.798 C71.276,128.684 68.745,126.707 71.04,128.861 M33.786,129.3 C34.135,130.015 34.506,130.6 34.61,130.6 C35.008,130.6 34.752,129.963 33.967,129 L33.152,128 L33.786,129.3 M195.481,131.221 C194.666,132.867 194.009,134.345 194.02,134.507 C194.031,134.668 194.762,133.386 195.646,131.659 C196.529,129.931 197.186,128.453 197.106,128.373 C197.027,128.293 196.295,129.575 195.481,131.221 M221.2,129.842 C218.06,132.135 217.731,132.65 220.722,130.59 C222.866,129.114 224.006,128.148 223.524,128.218 C223.456,128.228 222.41,128.959 221.2,129.842 M245.029,129.608 C243.944,130.358 242.774,131.278 242.429,131.653 C241.796,132.339 245.695,129.726 246.786,128.733 C247.763,127.844 247.106,128.171 245.029,129.608 M49.2,128.75 C49.2,129.041 51.271,132.6 51.441,132.6 C51.536,132.6 51.157,131.7 50.6,130.6 C49.731,128.886 49.2,128.183 49.2,128.75 M154.056,129.4 C154.056,129.73 154.211,130.36 154.4,130.8 C154.617,131.304 154.744,131.378 154.744,131 C154.744,130.67 154.589,130.04 154.4,129.6 C154.183,129.096 154.056,129.022 154.056,129.4 M168.434,130 C168.422,130.44 168.587,131.07 168.8,131.4 C169.314,132.195 169.314,131.196 168.8,130 L168.456,129.2 L168.434,130 M35.82,133.04 C36.389,134.162 36.934,134.999 37.033,134.901 C37.223,134.71 35.251,131 34.959,131 C34.864,131 35.252,131.918 35.82,133.04 M154.856,132.2 C154.856,132.53 155.011,133.16 155.2,133.6 C155.417,134.104 155.544,134.178 155.544,133.8 C155.544,133.47 155.389,132.84 155.2,132.4 C154.983,131.896 154.856,131.822 154.856,132.2 M270.15,134.3 C269.107,135.675 267.371,137.925 266.292,139.3 C265.214,140.675 264.482,141.789 264.666,141.776 C264.85,141.763 266.35,139.949 268,137.744 C269.65,135.539 271.33,133.299 271.733,132.767 C272.137,132.235 272.372,131.8 272.257,131.8 C272.141,131.8 271.193,132.925 270.15,134.3 M169.206,132.833 C169.209,133.255 169.395,133.87 169.618,134.2 C169.915,134.638 169.952,134.476 169.756,133.6 C169.427,132.129 169.198,131.81 169.206,132.833 M215.6,133.842 C212.46,136.135 212.131,136.65 215.122,134.59 C217.266,133.114 218.406,132.148 217.924,132.218 C217.856,132.228 216.81,132.959 215.6,133.842 M239.257,133.776 C238.078,134.628 236.908,135.554 236.657,135.832 C236.155,136.389 240.243,133.591 241.186,132.733 C242.258,131.757 241.425,132.208 239.257,133.776 M51.609,133.3 C51.614,133.465 51.985,134.05 52.433,134.6 L53.248,135.6 L52.614,134.3 C52.011,133.065 51.589,132.645 51.609,133.3 M208.222,136.436 C207.44,138.105 206.8,139.635 206.8,139.836 C206.8,140.353 207.499,140.288 207.838,139.738 C208.015,139.452 207.948,139.385 207.662,139.562 C206.988,139.978 207.083,139.605 208.219,137.362 C209.394,135.043 210.055,133.4 209.812,133.4 C209.719,133.4 209.003,134.766 208.222,136.436 M98,133.978 C98,134.216 99.179,135.306 101.9,137.583 C104.258,139.556 103.252,138.344 100.6,136.015 C99.17,134.76 98,133.843 98,133.978 M285.777,136.5 C283.617,139.2 283.476,139.4 283.728,139.4 C283.852,139.4 284.784,138.32 285.8,137 C287.987,134.158 287.968,133.76 285.777,136.5 M155.844,136 C156.173,137.471 156.402,137.79 156.394,136.767 C156.391,136.345 156.205,135.73 155.982,135.4 C155.685,134.962 155.648,135.124 155.844,136 M170.006,135.633 C170.009,136.055 170.195,136.67 170.418,137 C170.715,137.438 170.752,137.276 170.556,136.4 C170.227,134.929 169.998,134.61 170.006,135.633 M38.509,137.8 C39.272,139.23 40.114,140.82 40.38,141.334 C40.647,141.848 40.948,142.185 41.051,142.083 C41.153,141.981 40.688,140.967 40.018,139.831 C39.348,138.695 38.796,137.638 38.791,137.482 C38.786,137.327 38.409,136.75 37.952,136.2 C37.465,135.613 37.695,136.273 38.509,137.8 M210.6,137.432 C208.23,139.224 207.927,139.702 210.08,138.254 C211.113,137.559 212.069,136.812 212.203,136.595 C212.574,135.994 212.339,136.117 210.6,137.432 M233.9,137.614 C232.855,138.38 232,139.096 232,139.203 C232,139.311 232.9,138.752 234,137.962 C235.709,136.734 236.323,136.168 235.9,136.21 C235.845,136.215 234.945,136.847 233.9,137.614 M54.6,138.6 C54.941,139.26 55.311,139.8 55.421,139.8 C55.531,139.8 55.341,139.26 55,138.6 C54.659,137.94 54.289,137.4 54.179,137.4 C54.069,137.4 54.259,137.94 54.6,138.6 M83.2,139.408 C86.762,142.748 98.799,153.037 98.77706,152.722 C98.764,152.545 96.469,150.463 93.677,148.095 C90.885,145.728 87.88,143.151 87,142.37 C86.12,141.588 84.5,140.223 83.4,139.335 L81.4,137.721 L83.2,139.408 M156.644,138.8 C156.973,140.271 157.202,140.59 157.194,139.567 C157.191,139.145 157.005,138.53 156.782,138.2 C156.485,137.762 156.448,137.924 156.644,138.8 M170.856,138.6 C170.856,138.93 171.011,139.56 171.2,140 C171.417,140.504 171.544,140.578 171.544,140.2 C171.544,139.87 171.389,139.24 171.2,138.8 C170.983,138.296 170.856,138.222 170.856,138.6 M103.627878,138.881 C103.643,139.056 106.284,141.439 109.497,144.175 C112.71,146.911 115.223,148.962 115.082,148.732 C114.659,148.048 103.598,138.534 103.627878,138.881 M281.777,141.7 C279.617,144.4 279.476,144.6 279.728,144.6 C279.852,144.6 280.784,143.52 281.8,142.2 C283.987,139.358 283.968,138.96 281.777,141.7 M55.609,140.5 C55.614,140.665 55.985,141.25 56.433,141.8 L57.248,142.8 L56.614,141.5 C56.011,140.265 55.589,139.845 55.609,140.5 M228.3,141.614 C227.255,142.38 226.4,143.107 226.4,143.229 C226.4,143.487 229.974,140.966 230.257,140.509 C230.574,139.995 230.281,140.16 228.3,141.614 M157.234,141 C157.246,141.33 157.411,141.96 157.6,142.4 L157.944,143.2 L157.966,142.4 C157.978,141.96 157.813,141.33 157.6,141 C157.255,140.467 157.215,140.467 157.234,141 M171.656,141.4 C171.656,141.73 171.811,142.36 172,142.8 C172.217,143.304 172.344,143.378 172.344,143 C172.344,142.67 172.189,142.04 172,141.6 C171.783,141.096 171.656,141.022 171.656,141.4 M262.975,143.668 C262.359,144.476 262.059,145.011 262.309,144.856 C262.821,144.54 264.553,142.2 264.275,142.2 C264.176,142.2 263.591,142.861 262.975,143.668 M42.24,144.602 C42.839,145.703 43.393,146.54 43.471,146.463 C43.643,146.29 41.608,142.6 41.341,142.6 C41.236,142.6 41.64,143.501 42.24,144.602 M158.056,143.8 C158.056,144.13 158.211,144.76 158.4,145.2 C158.617,145.704 158.744,145.778 158.744,145.4 C158.744,145.07 158.589,144.44 158.4,144 C158.183,143.496 158.056,143.422 158.056,143.8 M223.907,144.726 C222.866,145.426 222.011,146.146 222.00698,146.325 C222,146.656 225.509,144.271 225.857,143.709 C226.142,143.247 225.969,143.337 223.907,144.726 M172.434,144.4 C172.422,144.84 172.587,145.47 172.8,145.8 C173.314,146.595 173.314,145.596 172.8,144.4 L172.456,143.6 L172.434,144.4 M58.6,145.8 C58.941,146.46 59.311,147 59.421,147 C59.531,147 59.341,146.46 59,145.8 C58.659,145.14 58.289,144.6 58.179,144.6 C58.069,144.6 58.259,145.14 58.6,145.8 M278.717,145.7 C277.419,147.197 271.57,155 271.745,155 C271.847,155 273.502,152.975 275.421,150.5 C277.341,148.025 279.089,145.775 279.305,145.5 C279.906,144.735 279.406,144.905 278.717,145.7 M258.96,148.9 C257.472,150.825 255.702,153.113 255.027,153.985 C254.352,154.857 254.001,155.446 254.246,155.295 C254.761,154.977 262.118,145.4 261.847,145.4 C261.748,145.4 260.449,146.975 258.96,148.9 M158.856,146.6 C158.856,146.93 159.011,147.56 159.2,148 C159.417,148.504 159.544,148.578 159.544,148.2 C159.544,147.87 159.389,147.24 159.2,146.8 C158.983,146.296 158.856,146.222 158.856,146.6 M173.234,147.2 C173.222,147.64 173.387,148.27 173.6,148.6 C174.114,149.395 174.114,148.396 173.6,147.2 L173.256,146.4 L173.234,147.2 M219.429,148.008 C218.344,148.758 217.174,149.678 216.829,150.053 C216.196,150.739 220.095,148.126 221.186,147.133 C222.163,146.244 221.506,146.571 219.429,148.008 M44.2,148.2 C44.541,148.86 44.911,149.4 45.021,149.4 C45.131,149.4 44.941,148.86 44.6,148.2 C44.259,147.54 43.889,147 43.779,147 C43.669,147 43.859,147.54 44.2,148.2 M59.606,147.45 C59.597,147.805 61.633,151.4 61.842,151.4 C61.938,151.4 61.66,150.725 61.224,149.9 C60.278,148.111 59.615,147.106 59.606,147.45 M115.627878,149.281 C115.643,149.456 118.284,151.839 121.497,154.575 C124.71,157.311 127.223,159.362 127.082,159.132 C126.659,158.448 115.598,148.934 115.627878,149.281 M159.656,149.4 C159.656,149.73 159.811,150.36 160,150.8 C160.217,151.304 160.344,151.378 160.344,151 C160.344,150.67 160.189,150.04 160,149.6 C159.783,149.096 159.656,149.022 159.656,149.4 M174.006,150.033 C174.009,150.455 174.195,151.07 174.418,151.4 C174.715,151.838 174.752,151.676 174.556,150.8 C174.227,149.329 173.998,149.01 174.006,150.033 M46.24,151.802 C46.839,152.903 47.393,153.74 47.471,153.663 C47.643,153.49 45.608,149.8 45.341,149.8 C45.236,149.8 45.64,150.701 46.24,151.802 M213.657,152.176 C212.478,153.028 211.308,153.954 211.057,154.232 C210.555,154.789 214.643,151.991 215.586,151.133 C216.658,150.157 215.825,150.608 213.657,152.176 M62.05,152.009 C62.377,152.9 65.669,158.6 65.856,158.6 C66.101,158.6 62.838,152.558 62.292,152 C62.031,151.734 61.95,151.736 62.05,152.009 M99.342,153.307 C99.777,154.01 110.804,163.472 110.772139,163.115 C110.757,162.942 108.116,160.561 104.903,157.825 C101.69,155.089 99.187,153.056 99.342,153.307 M48.2,155.4 C48.541,156.06 48.911,156.6 49.021,156.6 C49.131,156.6 48.941,156.06 48.6,155.4 C48.259,154.74 47.889,154.2 47.779,154.2 C47.669,154.2 47.859,154.74 48.2,155.4 M208.23,156.102 C204.772,158.732 203.867,158.61 226.067,158.504 L246.2,158.408 L226.5,158.3 C214.51,158.235 206.8,158.045 206.8,157.815 C206.8,157.608 207.61,156.881 208.6,156.2 C210.134,155.145 210.72,154.594 210.3,154.602 C210.245,154.603 209.314,155.278 208.23,156.102 M161.444,156 C161.773,157.471 162.002,157.79 161.994,156.767 C161.991,156.345 161.805,155.73 161.582,155.4 C161.285,154.962 161.248,155.124 161.444,156 M175.656,155.8 C175.656,156.13 175.811,156.76 176,157.2 C176.217,157.704 176.344,157.778 176.344,157.4 C176.344,157.07 176.189,156.44 176,156 C175.783,155.496 175.656,155.422 175.656,155.8 M270.744,156.1 C269.475,157.632 269.019,158.342 269.481,158.065 C269.993,157.758 271.769,155.4 271.489,155.4 C271.398,155.4 271.063,155.715 270.744,156.1 M252.48,157.231 C251.783,158.018 251.42,158.593 251.672,158.509 C252.133,158.356 254.258,155.8 253.925,155.8 C253.827,155.8 253.177,156.444 252.48,157.231 M162.034,158.2 C162.046,158.53 162.211,159.16 162.4,159.6 L162.744,160.4 L162.766,159.6 C162.778,159.16 162.613,158.53 162.4,158.2 C162.055,157.667 162.015,157.667 162.034,158.2 M50.586,159.7 C50.935,160.415 51.306,161 51.41,161 C51.808,161 51.552,160.363 50.767,159.4 L49.952,158.4 L50.586,159.7 M265.6,162.656 C263.95,164.861 262.256,167.146 261.835,167.733 L261.07,168.8 L261.87,168 C263.162,166.709 269.253,158.598 268.912,158.623876 C268.74,158.637 267.25,160.451 265.6,162.656 M66,159.15 C66,159.441 68.071,163 68.241,163 C68.336,163 67.957,162.1 67.4,161 C66.531,159.286 66,158.583 66,159.15 M127.627878,159.681 C127.643,159.856 130.284,162.239 133.497,164.975 C136.71,167.711 139.223,169.762 139.082,169.532 C138.659,168.848 127.598,159.334 127.627878,159.681 M162.856,161 C162.856,161.33 163.011,161.96 163.2,162.4 C163.417,162.904 163.544,162.978 163.544,162.6 C163.544,162.27 163.389,161.64 163.2,161.2 C162.983,160.696 162.856,160.622 162.856,161 M52.62,163.44 C53.189,164.562 53.734,165.399 53.833,165.301 C54.023,165.11 52.051,161.4 51.759,161.4 C51.664,161.4 52.052,162.318 52.62,163.44 M68.409,163.7 C68.414,163.865 68.785,164.45 69.233,165 L70.048,166 L69.414,164.7 C68.811,163.465 68.389,163.045 68.409,163.7 M111.306,163.642 C111.732,164.341 122.803,173.875 122.774114,173.519 C122.76,173.344 121.905,172.501 120.874,171.648 C119.844,170.794 117.83,169.061 116.4,167.798 C112.658,164.491 110.997,163.136 111.306,163.642 M163.656,163.8 C163.656,164.13 163.811,164.76 164,165.2 C164.217,165.704 164.344,165.778 164.344,165.4 C164.344,165.07 164.189,164.44 164,164 C163.783,163.496 163.656,163.422 163.656,163.8 M55.309,168.2 C56.072,169.63 56.914,171.22 57.18,171.734 C57.447,172.248 57.748,172.585 57.851,172.483 C57.953,172.381 57.488,171.367 56.818,170.231 C56.148,169.095 55.596,168.038 55.591,167.882 C55.586,167.727 55.209,167.15 54.752,166.6 C54.265,166.013 54.495,166.673 55.309,168.2 M71.4,169 C71.741,169.66 72.111,170.2 72.221,170.2 C72.331,170.2 72.141,169.66 71.8,169 C71.459,168.34 71.089,167.8 70.979,167.8 C70.869,167.8 71.059,168.34 71.4,169 M259.775,170.3 L258.6,171.6 L259.9,170.425 C260.615,169.779 261.2,169.194 261.2,169.125 C261.2,168.816 260.87,169.088 259.775,170.3 M165.444,170.4 C165.773,171.871 166.002,172.19 165.994,171.167 C165.991,170.745 165.805,170.13 165.582,169.8 C165.285,169.362 165.248,169.524 165.444,170.4 M139.626919,170.08 C139.642,170.256 143.54,173.714 148.29,177.765 C153.04,181.815 156.809,184.937 156.664,184.703 C156.237,184.012 139.597,169.731 139.626919,170.08 M72.4149759,170.8 C72.417,171.02 72.786,171.65 73.236,172.2 C73.779,172.864 73.915,172.931 73.64,172.4 C72.966,171.095 72.412,170.372 72.4149759,170.8 M191.298,208.9 L191.396,246 L191.5,209.104 L191.604,172.209 L207.902,172.1 L224.2,171.991 L207.7,171.895 L191.2,171.8 L191.298,208.9 M166.244,173.2 C166.573,174.671 166.802,174.99 166.794,173.967 C166.791,173.545 166.605,172.93 166.382,172.6 C166.085,172.162 166.048,172.324 166.244,173.2 M246.719,172.498 C248.544,172.572 251.424,172.572 253.119,172.497 C254.814,172.422 253.32,172.361 249.8,172.362 C246.28,172.362 244.894,172.424 246.719,172.498 M59.04,175.002 C59.639,176.103 60.193,176.94 60.271,176.863 C60.443,176.69 58.408,173 58.141,173 C58.036,173 58.44,173.901 59.04,175.002 M124.8,175.408 C128.362,178.748 140.399,189.037 140.37706,188.722 C140.364,188.545 138.069,186.463 135.277,184.095 C132.485,181.728 129.48,179.151 128.6,178.37 C127.72,177.588 126.1,176.223 125,175.335 L123,173.721 L124.8,175.408 M75.4,176.2 C75.741,176.86 76.111,177.4 76.221,177.4 C76.331,177.4 76.141,176.86 75.8,176.2 C75.459,175.54 75.089,175 74.979,175 C74.869,175 75.059,175.54 75.4,176.2 M166.834,175.4 C166.846,175.73 167.011,176.36 167.2,176.8 L167.544,177.6 L167.566,176.8 C167.578,176.36 167.413,175.73 167.2,175.4 C166.855,174.867 166.815,174.867 166.834,175.4 M61,178.6 C61.341,179.26 61.711,179.8 61.821,179.8 C61.931,179.8 61.741,179.26 61.4,178.6 C61.059,177.94 60.689,177.4 60.579,177.4 C60.469,177.4 60.659,177.94 61,178.6 M76.406,177.85 C76.397,178.205 78.433,181.8 78.642,181.8 C78.738,181.8 78.46,181.125 78.024,180.3 C77.078,178.511 76.415,177.506 76.406,177.85 M167.656,178.2 C167.656,178.53 167.811,179.16 168,179.6 C168.217,180.104 168.344,180.178 168.344,179.8 C168.344,179.47 168.189,178.84 168,178.4 C167.783,177.896 167.656,177.822 167.656,178.2 M63.04,182.202 C63.639,183.303 64.193,184.14 64.271,184.063 C64.443,183.89 62.408,180.2 62.141,180.2 C62.036,180.2 62.44,181.101 63.04,182.202 M168.456,181 C168.456,181.33 168.611,181.96 168.8,182.4 C169.017,182.904 169.144,182.978 169.144,182.6 C169.144,182.27 168.989,181.64 168.8,181.2 C168.583,180.696 168.456,180.622 168.456,181 M78.85,182.409 C79.177,183.3 82.469,189 82.656,189 C82.901,189 79.638,182.958 79.092,182.4 C78.831,182.134 78.75,182.136 78.85,182.409 M169.444,184.8 C169.773,186.271 170.002,186.59 169.994,185.567 C169.991,185.145 169.805,184.53 169.582,184.2 C169.285,183.762 169.248,183.924 169.444,184.8 M65,185.8 C65.341,186.46 65.711,187 65.821,187 C65.931,187 65.741,186.46 65.4,185.8 C65.059,185.14 64.689,184.6 64.579,184.6 C64.469,184.6 64.659,185.14 65,185.8 M157.227878,185.281 C157.243,185.456 159.884,187.839 163.097,190.575 C166.31,193.311 168.823,195.362 168.682,195.132 C168.259,194.448 157.198,184.934 157.227878,185.281 M170.244,187.6 C170.573,189.071 170.802,189.39 170.794,188.367 C170.791,187.945 170.605,187.33 170.382,187 C170.085,186.562 170.048,186.724 170.244,187.6 M67.386,190.1 C67.735,190.815 68.106,191.4 68.21,191.4 C68.608,191.4 68.352,190.763 67.567,189.8 L66.752,188.8 L67.386,190.1 M140.942,189.307 C141.377,190.01 152.404,199.472 152.372139,199.115 C152.357,198.942 149.716,196.561 146.503,193.825 C143.29,191.089 140.787,189.056 140.942,189.307 M82.8,189.55 C82.8,189.841 84.871,193.4 85.041,193.4 C85.136,193.4 84.757,192.5 84.2,191.4 C83.331,189.686 82.8,188.983 82.8,189.55 M171.044,190.4 C171.373,191.871 171.602,192.19 171.594,191.167 C171.591,190.745 171.405,190.13 171.182,189.8 C170.885,189.362 170.848,189.524 171.044,190.4 M69.42,193.84 C69.989,194.962 70.534,195.799 70.633,195.701 C70.823,195.51 68.851,191.8 68.559,191.8 C68.464,191.8 68.852,192.718 69.42,193.84 M171.634,192.6 C171.646,192.93 171.811,193.56 172,194 L172.344,194.8 L172.366,194 C172.378,193.56 172.213,192.93 172,192.6 C171.655,192.067 171.615,192.067 171.634,192.6 M85.213,193.962 C85.163,195.369 87.297,196.998 89.12,196.947 L91,196.893 L89.027,196.62 C87.785,196.448 86.896,196.084 86.627,195.639 C85.828,194.313 85.225,193.599 85.213,193.962 M172.456,195.4 C172.456,195.73 172.611,196.36 172.8,196.8 C173.017,197.304 173.144,197.378 173.144,197 C173.144,196.67 172.989,196.04 172.8,195.6 C172.583,195.096 172.456,195.022 172.456,195.4 M169.2,195.566 C169.2,195.835 171.576,198.014 172.861,198.923 C173.508,199.381 173.6,199.345 173.6,198.635 C173.6,198.101 173.407,197.899 173.034,198.042 C172.718,198.164 171.747,197.608 170.834,196.783 C169.935,195.971 169.2,195.423 169.2,195.566 M72.43,199.3 C73.944,202.083 75.164,203.919 74.75,202.791 C74.423,201.9 71.131,196.2 70.944,196.2 C70.834,196.2 71.503,197.595 72.43,199.3 M92.6,197.4 C93.26,197.568 94.52,197.704 95.4,197.703 L97,197.7 L95.2,197.38 C92.757,196.945 90.87,196.96 92.6,197.4 M99,198.223 C99.88,198.405 101.23,198.542 102,198.527 C103.305,198.502 103.278,198.478 101.6,198.18 C99.05,197.726 96.779,197.764 99,198.223 M105,199 C105.66,199.168 106.92,199.304 107.8,199.303 L109.4,199.3 L107.6,198.98 C105.157,198.545 103.27,198.56 105,199 M111.4,199.802 C113.017,200.158 115.874,200.327 115.567,200.049 C115.475,199.966 114.14,199.798 112.6,199.674 C110.448,199.502 110.17,199.531 111.4,199.802 M154.2,200.853 C155.08,201.705 156.61,203.099 157.6,203.949 L159.4,205.495 L156.4,205.277 C154.163,205.114 153.807,205.147 155,205.406 C159.767,206.443 160.378,205.891 157.375,203.257 C153.975,200.276 152.277,198.989 154.2,200.853 M117.4,200.6 C118.06,200.768 119.32,200.904 120.2,200.903 L121.8,200.9 L120,200.58 C117.557,200.145 115.67,200.16 117.4,200.6 M123.8,201.4 C124.46,201.568 125.72,201.704 126.6,201.703 L128.2,201.7 L126.4,201.38 C123.957,200.945 122.07,200.96 123.8,201.4 M129.8,202.2 C130.46,202.368 131.72,202.504 132.6,202.503 L134.2,202.5 L132.4,202.18 C129.957,201.745 128.07,201.76 129.8,202.2 M136.2,202.985 C137.422,203.311 140.67,203.52 140.367,203.253 C140.275,203.172 139.03,203.007 137.6,202.885 C135.962,202.746 135.444,202.782 136.2,202.985 M75.842,205.407 C76.993,207.52 78,208.66 78,207.849 C78,207.602 77.849,207.4 77.664,207.4 C77.479,207.4 76.837,206.5 76.239,205.4 C75.64,204.3 75.06,203.4 74.95,203.4 C74.84,203.4 75.242,204.303 75.842,205.407 M142.6,203.802 C144.217,204.158 147.074,204.327 146.767,204.049 C146.675,203.966 145.34,203.798 143.8,203.674 C141.648,203.502 141.37,203.531 142.6,203.802 M148.6,204.6 C149.26,204.768 150.43,204.906 151.2,204.907 L152.6,204.908 L151,204.577 C148.845,204.131 146.834,204.151 148.6,204.6 M80,209.4 C80.33,209.613 80.96,209.778 81.4,209.766 L82.2,209.744 L81.4,209.4 C80.204,208.886 79.205,208.886 80,209.4 M83.233,209.95 C83.325,210.032 84.48,210.2 85.8,210.323 C87.378,210.47 87.789,210.435 87,210.22 C85.766,209.885 82.936,209.682 83.233,209.95 M90.8,211.02 C93.243,211.455 95.13,211.44 93.4,211 C92.74,210.832 91.48,210.696 90.6,210.697 L89,210.7 L90.8,211.02 M95.633,211.55 C95.725,211.632 96.88,211.8 98.2,211.923 C99.778,212.07 100.189,212.035 99.4,211.82 C98.166,211.485 95.336,211.282 95.633,211.55 M103.2,212.62 C105.643,213.055 107.53,213.04 105.8,212.6 C105.14,212.432 103.88,212.296 103,212.297 L101.4,212.3 L103.2,212.62 M109.6,213.42 C112.043,213.855 113.93,213.84 112.2,213.4 C111.54,213.232 110.28,213.096 109.4,213.097 L107.8,213.1 L109.6,213.42 M115.8,214.223 C116.68,214.405 117.85,214.543 118.4,214.53 C119.988,214.491 117.365,213.895 115.6,213.893 L114.2,213.892 L115.8,214.223 M122,215.02 C124.414,215.45 126.306,215.413 124.2,214.977 C123.32,214.795 122.06,214.658 121.4,214.673 C120.5,214.693 120.65,214.78 122,215.02 M126.433,215.547 C126.525,215.628 127.77,215.793 129.2,215.915 C130.838,216.054 131.356,216.018 130.6,215.815 C129.378,215.489 126.13,215.28 126.433,215.547 M134.4,216.62 C136.814,217.05 138.706,217.013 136.6,216.577 C135.72,216.395 134.46,216.258 133.8,216.273 C132.9,216.293 133.05,216.38 134.4,216.62 M139.233,217.15 C139.325,217.232 140.48,217.4 141.8,217.523 C143.378,217.67 143.789,217.635 143,217.42 C141.766,217.085 138.936,216.882 139.233,217.15 M146.8,218.22 C149.243,218.655 151.13,218.64 149.4,218.2 C148.74,218.032 147.48,217.896 146.6,217.897 L145,217.9 L146.8,218.22 M151.633,218.75 C151.725,218.832 152.88,219 154.2,219.123 C155.778,219.27 156.189,219.235 155.4,219.02 C154.166,218.685 151.336,218.482 151.633,218.75 M159.2,219.82 C161.643,220.255 163.53,220.24 161.8,219.8 C161.14,219.632 159.88,219.496 159,219.497 L157.4,219.5 L159.2,219.82 M164.033,220.35 C164.125,220.432 165.28,220.6 166.6,220.723 C168.178,220.87 168.589,220.835 167.8,220.62 C166.566,220.285 163.736,220.082 164.033,220.35 M171.6,221.42 C174.043,221.855 175.93,221.84 174.2,221.4 C173.54,221.232 172.28,221.096 171.4,221.097 L169.8,221.1 L171.6,221.42 M174.2,247 C173.696,247.217 173.622,247.344 174,247.344 C174.33,247.344 174.96,247.189 175.4,247 C175.904,246.783 175.978,246.656 175.6,246.656 C175.27,246.656 174.64,246.811 174.2,247 M192.8,247 C193.13,247.213 193.67,247.388 194,247.388 C194.533,247.388 194.533,247.345 194,247 C193.67,246.787 193.13,246.612 192.8,246.612 C192.267,246.612 192.267,246.655 192.8,247 M167.9,249.629 C166.405,250.44 166.496,250.778 168,250 C168.66,249.659 169.2,249.294 169.2,249.19 C169.2,248.932 169.157,248.947 167.9,249.629 M200.62,250.136 C201.481,250.898 204.834,252.978 204.606,252.609 C204.296,252.107 200.963,249.8 200.548,249.8 C200.379,249.8 200.411,249.951 200.62,250.136 M207.775,255.8 C211.733,260.078 211.842,260.187 211.159,259.156 C210.391,257.998 207.618,255.012 206.183,253.8 C205.532,253.25 206.249,254.15 207.775,255.8 M160.193,255.407 C159.337,256.283 158.749,257 158.884,257 C159.259,257 162.099,254.165 161.911,253.978 C161.822,253.888 161.048,254.531 160.193,255.407 M182.7,259.289 C183.415,259.378 184.585,259.378 185.3,259.289 C186.015,259.201 185.43,259.128 184,259.128 C182.57,259.128 181.985,259.201 182.7,259.289 M178.4,259.8 C177.605,260.314 178.604,260.314 179.8,259.8 L180.6,259.456 L179.8,259.434 C179.36,259.422 178.73,259.587 178.4,259.8 M192.8,261.09 C193.265,261.637 197.2,264.122 197.2,263.869 C197.2,263.584 196.431,263.053 194,261.659 C193.23,261.217 192.69,260.961 192.8,261.09 M213,262.6 C213.341,263.26 213.711,263.8 213.821,263.8 C213.931,263.8 213.741,263.26 213.4,262.6 C213.059,261.94 212.689,261.4 212.579,261.4 C212.469,261.4 212.659,261.94 213,262.6 M169.781,265.1 L168.2,266.8 L169.9,265.219 C171.481,263.748 171.784,263.4 171.481,263.4 C171.416,263.4 170.651,264.165 169.781,265.1 M199.024,266 C200.892,268.47 201.422,269.04 200.884,268 C200.656,267.56 199.804,266.48 198.991,265.6 L197.512,264 L199.024,266 M152.6,267 C152.45,267.473 152.417,267.95 152.527,268.06 C152.637,268.17 152.85,267.873 153,267.4 C153.15,266.927 153.183,266.45 153.073,266.34 C152.963,266.23 152.75,266.527 152.6,267 M167.509,267.7 C166.62,268.711 165.104,271.837 165.372,272.105 C165.497,272.231 165.6,272.158 165.6,271.943 C165.6,271.729 166.217,270.529 166.971,269.276 C168.409,266.888 168.528,266.541 167.509,267.7 M201.878,270.395 C202.244,271.162 202.614,271.719 202.701,271.632 C202.884,271.449 201.67,269 201.396,269 C201.295,269 201.512,269.628 201.878,270.395 M216.468,271 C216.488,272.039 217.118,273.746 217.132,272.8 C217.138,272.36 216.989,271.64 216.8,271.2 C216.589,270.71 216.461,270.632 216.468,271 M150.978,272.778 C150.827,273.581 150.794,274.327 150.904,274.437 C151.014,274.547 151.227,273.981 151.378,273.178 C151.528,272.375 151.562,271.628 151.452,271.518 C151.342,271.408 151.128,271.975 150.978,272.778 M217.321,279.2 C217.318,283.423 217.358,283.713 217.656,281.61 C217.842,280.295 217.843,278.135 217.659,276.81 C217.364,274.683 217.324,274.964 217.321,279.2 M203.8,279.2 C203.8,281.536 203.917,283.032 204.06,282.524 C204.203,282.016 204.32,280.52 204.32,279.2 C204.32,277.88 204.203,276.384 204.06,275.876 C203.917,275.368 203.8,276.864 203.8,279.2 M164.137,279.2 C164.139,280.96 164.209,281.63 164.293,280.689 C164.378,279.749 164.377,278.309 164.291,277.489 C164.205,276.67 164.136,277.44 164.137,279.2 M150.531,279.2 C150.533,280.74 150.605,281.321 150.692,280.491 C150.779,279.661 150.777,278.401 150.689,277.691 C150.6,276.981 150.529,277.66 150.531,279.2 M150.868,284.6 C150.862,285.15 151.011,285.96 151.2,286.4 L151.544,287.2 L151.532,286.4 C151.526,285.96 151.376,285.15 151.2,284.6 L150.88,283.6 L150.868,284.6 M216.65,286.25 C216.509,286.953 216.469,287.602 216.559,287.692 C216.65,287.783 216.848,287.291 217,286.6 C217.152,285.909 217.193,285.259 217.091,285.158 C216.989,285.056 216.791,285.547 216.65,286.25 M201.878,288.005 C201.512,288.772 201.295,289.4 201.396,289.4 C201.67,289.4 202.884,286.951 202.701,286.768 C202.614,286.681 202.244,287.238 201.878,288.005 M151.612,288.2 C151.612,288.53 151.787,289.07 152,289.4 C152.345,289.933 152.388,289.933 152.388,289.4 C152.388,289.07 152.213,288.53 152,288.2 C151.655,287.667 151.612,287.667 151.612,288.2 M152.412,290.6 C152.412,290.93 152.587,291.47 152.8,291.8 C153.145,292.333 153.188,292.333 153.188,291.8 C153.188,291.47 153.013,290.93 152.8,290.6 C152.455,290.067 152.412,290.067 152.412,290.6 M169.602,293.138 C170.991,294.666 174.051,297 174.665,297 C174.841,297 174.269,296.526 173.393,295.946 C172.517,295.367 170.991,294.152 170.002,293.246 L168.204,291.6 L169.602,293.138 M197,294.277 L195.8,295.508 L197.088,294.636 C198.421,293.732 199.088,292.983 198.524,293.023 C198.346,293.035 197.66,293.6 197,294.277 M212.986,295.9 L212.352,297.2 L213.167,296.2 C213.952,295.237 214.208,294.6 213.81,294.6 C213.706,294.6 213.335,295.185 212.986,295.9 M180.315,299.072 C181.18,299.415 186.693,299.407 187.924,299.06 C188.432,298.917 186.773,298.8 184.239,298.8 C181.704,298.8 179.938,298.922 180.315,299.072 M207.567,302.617 C205.459,304.785 204.199,306.222 204.767,305.81 C206.298,304.699 212.18,298.479 211.549,298.638 C211.467,298.658 209.675,300.449 207.567,302.617 M157.613,299.995 C159.663,302.774 163.327,305.994 166.9,308.157 C169.456,309.704 168.549,308.808 165.7,306.97 C164.215,306.013 161.656,303.873 160.013,302.215 C158.37,300.557 157.29,299.558 157.613,299.995 M170.138,309.847 C170.984,310.293 171.768,310.565 171.881,310.452 C172.076,310.257 169.38,308.98 168.851,309.018 C168.713,309.027 169.292,309.4 170.138,309.847 M175.8,311.8 C176.24,311.989 176.87,312.144 177.2,312.144 C177.578,312.144 177.504,312.017 177,311.8 C176.56,311.611 175.93,311.456 175.6,311.456 C175.222,311.456 175.296,311.583 175.8,311.8 M191,311.8 L190.2,312.144 L191,312.144 C191.44,312.144 192.16,311.989 192.6,311.8 L193.4,311.456 L192.6,311.456 C192.16,311.456 191.44,311.611 191,311.8 M179.8,312.637 C181.331,312.979 186.631,312.985 188.2,312.647 C188.86,312.504 186.97,312.384 184,312.379 C181.03,312.374 179.14,312.49 179.8,312.637" id="Shape" fill="#F4A5AB" fill-rule="nonzero"></path>
            <text id="CartoBio" font-family="SourceSansPro-SemiBold, Source Sans Pro" font-size="180" font-weight="500" fill="#1C419B">
                <tspan x="416" y="221">CartoBio</tspan>
            </text>
        </g>
    </g>
</svg>