<svg width="28" height="28" viewBox="0 0 28 28" fill="none" xmlns="http://www.w3.org/2000/svg">
<path d="M5.57812 26.4089C5.10885 26.7231 4.65402 26.9065 4.04688 26.9065C2.41588 26.9065 1.09375 25.5843 1.09375 23.9534V16.7346C1.09375 15.1037 2.41588 13.7815 4.04688 13.7815C4.65402 13.7815 5.10885 13.965 5.57812 14.2791C4.7868 14.8089 4.26562 15.7108 4.26562 16.7346V23.9534C4.26562 24.9772 4.7868 25.8791 5.57812 26.4089ZM14.2188 23.9534V6.84489C14.2188 6.44748 13.8966 6.12526 13.4991 6.12526C12.8284 6.12526 12.4903 5.32234 12.9616 4.84688L14.2714 3.50026C14.8434 2.92314 15.7795 2.92314 16.3516 3.50026L17.2152 2.82339L16.4779 2.07964C15.1752 0.765445 13.0435 0.765445 11.7408 2.07964L8.31999 5.53053C7.24675 6.61318 8.01664 8.42213 9.54401 8.42213H10.8281H11.0469V23.9073C11.0469 25.5263 12.3307 26.8792 13.9494 26.9061C14.5789 26.9166 15.049 26.7318 15.5312 26.4089C14.7399 25.8791 14.2188 24.9772 14.2188 23.9534ZM24.1719 23.9534V13.8909C24.1719 12.8671 24.693 11.9652 25.4844 11.4354C25.0151 11.1212 24.5603 10.9378 23.9531 10.9378C22.3222 10.9378 21 12.2599 21 13.8909V23.9534C21 25.5843 22.3222 26.9065 23.9531 26.9065C24.5603 26.9065 25.0151 26.7231 25.4844 26.4089C24.693 25.8791 24.1719 24.9772 24.1719 23.9534Z" fill="#E3E3FD"/>
<path d="M23.9531 28C21.7217 28 19.9062 26.1846 19.9062 23.9531V13.8906C19.9062 11.6592 21.7217 9.84375 23.9531 9.84375C26.1846 9.84375 28 11.6592 28 13.8906V23.9531C28 26.1846 26.1846 28 23.9531 28ZM23.9531 12.0312C22.9278 12.0312 22.0938 12.8653 22.0938 13.8906V23.9531C22.0938 24.9784 22.9278 25.8125 23.9531 25.8125C24.9784 25.8125 25.8125 24.9784 25.8125 23.9531V13.8906C25.8125 12.8653 24.9784 12.0312 23.9531 12.0312ZM4.04688 28C1.81541 28 0 26.1846 0 23.9531V16.7344C0 14.5029 1.81541 12.6875 4.04688 12.6875C6.27834 12.6875 8.09375 14.5029 8.09375 16.7344V23.9531C8.09375 26.1846 6.27834 28 4.04688 28ZM4.04688 14.875C3.02159 14.875 2.1875 15.7091 2.1875 16.7344V23.9531C2.1875 24.9784 3.02159 25.8125 4.04688 25.8125C5.07216 25.8125 5.90625 24.9784 5.90625 23.9531V16.7344C5.90625 15.7091 5.07216 14.875 4.04688 14.875ZM18.0469 23.9531V19.6875C18.0469 19.0834 17.5572 18.5938 16.9531 18.5938C16.349 18.5938 15.8594 19.0834 15.8594 19.6875V23.9531C15.8594 24.9784 15.0253 25.8125 14 25.8125C12.9747 25.8125 12.1406 24.9784 12.1406 23.9531V8.42188C12.1406 7.8178 11.651 7.32812 11.0469 7.32812H9.54401C9.16059 7.32812 9.00938 7.06459 8.96213 6.95122C8.91669 6.84217 8.83881 6.56042 9.09677 6.30022L12.5176 2.84933C12.9407 2.42255 13.506 2.1875 14.1094 2.1875C14.7127 2.1875 15.278 2.42255 15.7011 2.84938L19.122 6.30027C19.3799 6.56053 19.3021 6.84223 19.2566 6.95127C19.2094 7.06459 19.0582 7.32818 18.6747 7.32818H16.9531C16.349 7.32818 15.8594 7.81785 15.8594 8.42193C15.8594 9.02601 16.349 9.51568 16.9531 9.51568H18.6747C19.8186 9.51568 20.8395 8.83941 21.2758 7.7928C21.715 6.73892 21.485 5.57687 20.6755 4.76027L17.2547 1.30938C16.4177 0.465008 15.3007 0 14.1094 0C12.9181 0 11.801 0.465008 10.964 1.30933L7.54316 4.76022C6.73367 5.57687 6.50366 6.73887 6.94291 7.79275C7.3792 8.83936 8.40016 9.51562 9.54401 9.51562H9.95312V23.9531C9.95312 26.1846 11.7685 28 14 28C16.2315 28 18.0469 26.1846 18.0469 23.9531Z" fill="#000091"/>
<path d="M16.9531 16.5703C16.349 16.5703 15.8594 16.0806 15.8594 15.4766V12.5234C15.8594 11.9194 16.349 11.4297 16.9531 11.4297C17.5572 11.4297 18.0469 11.9194 18.0469 12.5234V15.4766C18.0469 16.0806 17.5572 16.5703 16.9531 16.5703Z" fill="#0063CB"/>
</svg>
