<svg width="28" height="28" viewBox="0 0 28 28" fill="none" xmlns="http://www.w3.org/2000/svg">
<path d="M4.37522 21.4125V12.2797C4.37522 9.25939 6.85814 6.81097 9.87842 6.81097H6.70654C3.68621 6.81097 1.23779 9.25939 1.23779 12.2797V21.4125C1.23779 24.4329 3.68621 26.8813 6.70654 26.8813H9.87842C6.85814 26.8813 4.37522 24.4329 4.37522 21.4125Z" fill="#E3E3FD"/>
<path d="M9.89844 28H6.5625C2.94394 28 0 25.0561 0 21.4375V12.4688C0 8.85019 2.94394 5.90625 6.5625 5.90625H21.4375C25.0561 5.90625 28 8.85019 28 12.4688V15.75C28 16.3541 27.5103 16.8438 26.9062 16.8438C26.3022 16.8438 25.8125 16.3541 25.8125 15.75V12.4688C25.8125 10.0564 23.8499 8.09375 21.4375 8.09375H6.5625C4.15013 8.09375 2.1875 10.0564 2.1875 12.4688V21.4375C2.1875 23.8499 4.15013 25.8125 6.5625 25.8125H9.89844C10.5025 25.8125 10.9922 26.3022 10.9922 26.9062C10.9922 27.5103 10.5025 28 9.89844 28ZM28 24.6641V21.7752C28 19.9305 26.4992 18.4297 24.6544 18.4297H21.7656C21.1615 18.4297 20.6719 18.9194 20.6719 19.5234C20.6719 20.1275 21.1615 20.6172 21.7656 20.6172H24.6544C25.293 20.6172 25.8125 21.1367 25.8125 21.7752V24.6641C25.8125 25.2681 26.3022 25.7578 26.9062 25.7578C27.5103 25.7578 28 25.2681 28 24.6641ZM24.1968 23.997C24.6139 23.5602 24.5979 22.8679 24.1611 22.4506C23.7243 22.0335 23.0319 22.0495 22.6147 22.4863C20.5961 24.6001 17.762 25.8125 14.8392 25.8125H14.3281C13.724 25.8125 13.2344 26.3022 13.2344 26.9062C13.2344 27.5103 13.724 28 14.3281 28H14.8392C18.3567 28 21.7674 26.541 24.1968 23.997ZM7.16406 11.0469C6.40899 11.0469 5.79688 11.659 5.79688 12.4141C5.79688 13.1691 6.40899 13.7812 7.16406 13.7812C7.91913 13.7812 8.53125 13.1691 8.53125 12.4141C8.53125 11.659 7.91913 11.0469 7.16406 11.0469ZM11.8672 11.0469C11.1121 11.0469 10.5 11.659 10.5 12.4141C10.5 13.1691 11.1121 13.7812 11.8672 13.7812C12.6223 13.7812 13.2344 13.1691 13.2344 12.4141C13.2344 11.659 12.6223 11.0469 11.8672 11.0469ZM16.5703 11.0469C15.8152 11.0469 15.2031 11.659 15.2031 12.4141C15.2031 13.1691 15.8152 13.7812 16.5703 13.7812C17.3254 13.7812 17.9375 13.1691 17.9375 12.4141C17.9375 11.659 17.3254 11.0469 16.5703 11.0469ZM7.16406 15.75C6.40899 15.75 5.79688 16.3621 5.79688 17.1172C5.79688 17.8723 6.40899 18.4844 7.16406 18.4844C7.91913 18.4844 8.53125 17.8723 8.53125 17.1172C8.53125 16.3621 7.91913 15.75 7.16406 15.75ZM7.16406 20.4531C6.40899 20.4531 5.79688 21.0652 5.79688 21.8203C5.79688 22.5754 6.40899 23.1875 7.16406 23.1875C7.91913 23.1875 8.53125 22.5754 8.53125 21.8203C8.53125 21.0652 7.91913 20.4531 7.16406 20.4531ZM11.8672 15.75C11.1121 15.75 10.5 16.3621 10.5 17.1172C10.5 17.8723 11.1121 18.4844 11.8672 18.4844C12.6223 18.4844 13.2344 17.8723 13.2344 17.1172C13.2344 16.3621 12.6223 15.75 11.8672 15.75ZM11.8672 20.4531C11.1121 20.4531 10.5 21.0652 10.5 21.8203C10.5 22.5754 11.1121 23.1875 11.8672 23.1875C12.6223 23.1875 13.2344 22.5754 13.2344 21.8203C13.2344 21.0652 12.6223 20.4531 11.8672 20.4531ZM16.5703 15.75C15.8152 15.75 15.2031 16.3621 15.2031 17.1172C15.2031 17.8723 15.8152 18.4844 16.5703 18.4844C17.3254 18.4844 17.9375 17.8723 17.9375 17.1172C17.9375 16.3621 17.3254 15.75 16.5703 15.75Z" fill="#000091"/>
<path d="M9.95312 4.375C9.34905 4.375 8.85938 3.88533 8.85938 3.28125C8.85938 2.67816 8.36872 2.1875 7.76562 2.1875C7.16253 2.1875 6.67188 2.67816 6.67188 3.28125C6.67188 3.88533 6.1822 4.375 5.57812 4.375C4.97405 4.375 4.48438 3.88533 4.48438 3.28125C4.48438 1.47197 5.95634 0 7.76562 0C9.57491 0 11.0469 1.47197 11.0469 3.28125C11.0469 3.88533 10.5572 4.375 9.95312 4.375ZM23.625 3.28125C23.625 1.47197 22.153 0 20.3438 0C18.5345 0 17.0625 1.47197 17.0625 3.28125C17.0625 3.88533 17.5522 4.375 18.1562 4.375C18.7603 4.375 19.25 3.88533 19.25 3.28125C19.25 2.67816 19.7407 2.1875 20.3438 2.1875C20.9468 2.1875 21.4375 2.67816 21.4375 3.28125C21.4375 3.88533 21.9272 4.375 22.5312 4.375C23.1353 4.375 23.625 3.88533 23.625 3.28125ZM21.2734 11.0469C20.5184 11.0469 19.9062 11.659 19.9062 12.4141C19.9062 13.1691 20.5184 13.7812 21.2734 13.7812C22.0285 13.7812 22.6406 13.1691 22.6406 12.4141C22.6406 11.659 22.0285 11.0469 21.2734 11.0469Z" fill="#0063CB"/>
</svg>
