<svg width="28" height="28" viewBox="0 0 28 28" fill="none" xmlns="http://www.w3.org/2000/svg">
<path d="M9.13167 22.8565H6.56332C5.35527 22.8565 4.37591 21.8771 4.37591 20.6691C4.37591 19.461 5.35527 18.4817 6.56332 18.4817H9.84444C8.63638 18.4817 7.65703 19.461 7.65703 20.6691C7.65703 21.62 8.26409 22.4289 9.11171 22.7303C9.11789 22.7684 9.12472 22.8067 9.13205 22.8448C9.13194 22.8487 9.13178 22.8526 9.13167 22.8565ZM7.69514 9.84138C7.46781 10.2918 6.82554 10.4501 6.42048 10.0486L4.83018 8.47212C4.22454 7.87179 4.22454 6.88937 4.83018 6.28903L6.42048 4.71256C6.85682 4.28006 7.56838 4.4971 7.74009 5.02914H8.4773V2.81537C8.4773 1.28806 6.61374 0.518206 5.53108 1.5914L2.08033 5.01208C0.766191 6.31473 0.766191 8.44636 2.08033 9.74902L5.53108 13.1697C6.61374 14.2429 8.4773 13.473 8.4773 11.9457V9.84138H7.69514Z" fill="#E3E3FD"/>
<path d="M21.2881 28C20.9271 28 20.5612 27.928 20.2073 27.7805C19.1608 27.3443 18.4845 26.3234 18.4845 25.1796V22.8565C18.4845 22.2524 18.9742 21.7628 19.5782 21.7628C20.1823 21.7628 20.672 22.2524 20.672 22.8565V25.1796C20.672 25.563 20.9355 25.7142 21.0488 25.7614C21.1578 25.8069 21.4396 25.8847 21.6998 25.6268L25.1506 22.2062C25.5774 21.7831 25.8124 21.2178 25.8124 20.6145C25.8124 20.0111 25.5774 19.4458 25.1506 19.0227L21.6998 15.6021C21.4396 15.3441 21.1578 15.422 21.0488 15.4674C20.9355 15.5147 20.672 15.6659 20.672 16.0493V18.4817C20.672 19.0858 20.1823 19.5754 19.5782 19.5754H6.56315C5.96008 19.5754 5.46945 20.0661 5.46945 20.6691C5.46945 21.2722 5.96008 21.7628 6.56315 21.7628H8.31308C8.91713 21.7628 9.40679 22.2525 9.40679 22.8565C9.40679 23.4606 8.91713 23.9503 8.31308 23.9503H6.56315C4.75395 23.9503 3.28204 22.4783 3.28204 20.6691C3.28204 18.8599 4.75395 17.388 6.56315 17.388H18.4845V16.0493C18.4845 14.9054 19.1608 13.8846 20.2073 13.4483C21.2613 13.0089 22.4232 13.2391 23.2398 14.0486L26.6905 17.4692C27.5348 18.3062 27.9998 19.4232 27.9998 20.6145C27.9998 21.8057 27.5348 22.9227 26.6905 23.7597L23.2398 27.1803C22.6974 27.718 22.0025 28 21.2881 28ZM7.83404 14.5411C8.90538 14.0946 9.5709 13.1001 9.5709 11.9457V10.7164H21.4376C23.2468 10.7164 24.7187 9.24446 24.7187 7.43525C24.7187 5.62604 23.2468 4.15414 21.4376 4.15414H9.5709V2.81539C9.5709 1.66104 8.90538 0.666529 7.83404 0.220024C6.77626 -0.220849 5.57007 0.0126029 4.761 0.814672L1.31025 4.23534C0.465911 5.0723 0.000976562 6.1893 0.000976562 7.38057C0.000976562 8.57183 0.465965 9.68883 1.31025 10.5258L4.761 13.9465C5.2985 14.4793 6.01116 14.7611 6.73918 14.7611C7.10705 14.7611 7.47897 14.6891 7.83404 14.5411ZM6.99249 2.23911C7.11001 2.28811 7.38343 2.44232 7.38343 2.81544V5.2479C7.38343 5.85195 7.87308 6.3416 8.47714 6.3416H21.4375C22.0406 6.3416 22.5312 6.83224 22.5312 7.43531C22.5312 8.03837 22.0406 8.52901 21.4375 8.52901H8.47714C7.87308 8.52901 7.38343 9.01866 7.38343 9.62272V11.9458C7.38343 12.3189 7.11001 12.4731 6.99249 12.5221C6.87366 12.5717 6.56846 12.6583 6.30094 12.393L2.85019 8.97235C2.42337 8.5493 2.18833 7.98396 2.18833 7.38062C2.18833 6.77728 2.42337 6.21194 2.85019 5.7889L6.30094 2.36828C6.44416 2.22632 6.59821 2.18514 6.72858 2.18514C6.84177 2.18508 6.93725 2.21609 6.99249 2.23911ZM2.08022 5.01209H2.08077H2.08022Z" fill="#000091"/>
<path d="M15.4227 23.9501H12.4697C11.8656 23.9501 11.376 23.4604 11.376 22.8563C11.376 22.2523 11.8656 21.7626 12.4697 21.7626H15.4227C16.0267 21.7626 16.5164 22.2523 16.5164 22.8563C16.5164 23.4604 16.0267 23.9501 15.4227 23.9501Z" fill="#0063CB"/>
</svg>
