<svg width="28" height="29" viewBox="0 0 28 29" fill="none" xmlns="http://www.w3.org/2000/svg">
<g clip-path="url(#clip0_427_134286)">
<path d="M4.36737 22.0292V7.38382C4.36737 4.41012 6.81155 1.99951 9.82666 1.99951H6.55109C3.53598 1.99951 1.0918 4.41012 1.0918 7.38382V22.0292C1.0918 25.0028 3.53598 27.4135 6.55109 27.4135L9.39309 27.3966C6.58073 27.1786 4.36737 24.8589 4.36737 22.0292Z" fill="#E3E3FD"/>
<path d="M19.872 24.3982C19.592 24.3982 19.312 24.2926 19.0987 24.0815C18.673 23.6602 18.6742 22.9784 19.1013 22.5586L21.0824 20.6113C21.2876 20.4096 21.4006 20.1414 21.4006 19.8564C21.4006 19.5727 21.2887 19.3058 21.0853 19.1044L19.109 17.1996C18.6777 16.7839 18.6697 16.1021 19.0911 15.6768C19.5126 15.2514 20.2039 15.2435 20.6351 15.6592L22.6163 17.5685C22.6189 17.5711 22.6215 17.5736 22.6241 17.5762C23.2434 18.1851 23.5844 18.9949 23.5844 19.8565C23.5844 20.718 23.2434 21.5278 22.6241 22.1367L20.6428 24.0841C20.4297 24.2935 20.1508 24.3982 19.872 24.3982ZM19.2715 19.7677C19.2715 19.173 18.7827 18.6908 18.1797 18.6908H14.7403C14.1373 18.6908 13.6484 19.173 13.6484 19.7677C13.6484 20.3625 14.1373 20.8446 14.7403 20.8446H18.1797C18.7827 20.8446 19.2715 20.3625 19.2715 19.7677Z" fill="#000091"/>
<path d="M21.4004 28.4905H6.55115C2.93885 28.4905 0 25.592 0 22.0294V7.38403C0 3.82133 2.93885 0.922852 6.55115 0.922852H21.4004C25.0127 0.922852 27.9516 3.82133 27.9516 7.38403V22.0294C27.9516 25.592 25.0127 28.4905 21.4004 28.4905ZM6.55115 3.07658C4.14295 3.07658 2.18372 5.0089 2.18372 7.38403V22.0294C2.18372 24.4045 4.14295 26.3368 6.55115 26.3368H21.4004C23.8086 26.3368 25.7679 24.4045 25.7679 22.0294V7.38403C25.7679 5.0089 23.8086 3.07658 21.4004 3.07658H6.55115ZM23.5841 7.86861C23.5841 7.27386 23.0953 6.79175 22.4923 6.79175H5.45929C4.85626 6.79175 4.36743 7.27386 4.36743 7.86861C4.36743 8.46336 4.85626 8.94548 5.45929 8.94548H22.4923C23.0953 8.94548 23.5841 8.46336 23.5841 7.86861ZM8.85312 19.7743C9.27878 19.353 9.27758 18.6712 8.8505 18.2514L6.86948 16.3042C6.66421 16.1024 6.55115 15.8342 6.55115 15.5493C6.55115 15.2656 6.66312 14.9987 6.86648 14.7972L8.8428 12.8924C9.27408 12.4768 9.28211 11.795 8.86065 11.3697C8.43908 10.9442 7.74783 10.9365 7.31665 11.352L5.33553 13.2614C5.33291 13.2639 5.33029 13.2664 5.32767 13.269C4.70848 13.8778 4.36743 14.6877 4.36743 15.5492C4.36749 16.4108 4.70848 17.2206 5.32789 17.8296L7.30901 19.7769C7.52209 19.9864 7.80095 20.091 8.07975 20.091C8.35981 20.091 8.63982 19.9854 8.85312 19.7743ZM14.3033 15.4605C14.3033 14.8657 13.8145 14.3836 13.2115 14.3836H9.77213C9.1691 14.3836 8.68027 14.8657 8.68027 15.4605C8.68027 16.0552 9.1691 16.5374 9.77213 16.5374H13.2115C13.8145 16.5374 14.3033 16.0552 14.3033 15.4605Z" fill="#000091"/>
</g>
<defs>
<clipPath id="clip0_427_134286">
<rect width="27.9516" height="27.5677" fill="white" transform="translate(0 0.922852)"/>
</clipPath>
</defs>
</svg>
