<svg width="28" height="28" viewBox="0 0 28 28" fill="none" xmlns="http://www.w3.org/2000/svg">
<g clip-path="url(#clip0_836_163555)">
<path d="M22.737 25.2786L21.9583 26.0573L18.1243 22.2232C17.1725 21.2715 16.5239 20.0593 16.2601 18.7394L15.6406 15.6406L18.7394 16.26C18.8439 16.2809 18.9475 16.3051 19.0506 16.3308L19.8694 20.7915C20.1332 22.1114 20.7819 23.3235 21.7336 24.2753L22.737 25.2786ZM4.375 21.4375V6.5625C4.375 3.54216 6.82341 1.09375 9.84375 1.09375L21.4348 1.05115L21.4375 1.03906L6.5625 1.09375C3.54216 1.09375 1.09375 3.54216 1.09375 6.5625V21.4375C1.09375 24.4578 3.54216 26.9062 6.5625 26.9062L9.40942 26.8891C6.5922 26.6677 4.375 24.3116 4.375 21.4375Z" fill="#E3E3FD"/>
<path d="M16.9531 28H6.5625C2.94394 28 0 25.0561 0 21.4375V6.5625C0 2.94394 2.94394 0 6.5625 0H21.4375C25.0561 0 28 2.94394 28 6.5625V17.0352C28 17.6392 27.5103 18.1289 26.9062 18.1289C26.3022 18.1289 25.8125 17.6392 25.8125 17.0352V6.5625C25.8125 4.15013 23.8499 2.1875 21.4375 2.1875H6.5625C4.15013 2.1875 2.1875 4.15013 2.1875 6.5625V21.4375C2.1875 23.8499 4.15013 25.8125 6.5625 25.8125H16.9531C17.5572 25.8125 18.0469 26.3022 18.0469 26.9062C18.0469 27.5103 17.5572 28 16.9531 28ZM26.8307 26.8307C28.3872 25.2742 28.3872 22.7415 26.8307 21.1849L22.9966 17.3509C21.8885 16.2427 20.4905 15.4947 18.9538 15.1875L15.855 14.5681C15.4966 14.4963 15.1258 14.6087 14.8672 14.8672C14.6087 15.1259 14.4965 15.4965 14.5681 15.8551L15.1875 18.9539C15.4947 20.4906 16.2427 21.8885 17.3508 22.9967L21.1849 26.8307C21.9389 27.5847 22.9415 28 24.0078 28C25.0742 28 26.0767 27.5847 26.8307 26.8307ZM18.5251 17.3325C19.6368 17.5547 20.6481 18.0959 21.4498 18.8976L25.2839 22.7316C25.9876 23.4353 25.9876 24.5802 25.2839 25.2839C24.9431 25.6248 24.4898 25.8125 24.0078 25.8125C23.5258 25.8125 23.0725 25.6248 22.7317 25.2839L18.8976 21.4499C18.096 20.6481 17.5548 19.6368 17.3326 18.5251L17.0347 17.0347L18.5251 17.3325Z" fill="#000091"/>
<path d="M21.4375 7.98438H11.4297C10.8256 7.98438 10.3359 7.4947 10.3359 6.89062C10.3359 6.28655 10.8256 5.79688 11.4297 5.79688H21.4375C22.0416 5.79688 22.5312 6.28655 22.5312 6.89062C22.5312 7.4947 22.0416 7.98438 21.4375 7.98438ZM22.5312 11.2656C22.5312 10.6615 22.0416 10.1719 21.4375 10.1719H6.5625C5.95842 10.1719 5.46875 10.6615 5.46875 11.2656C5.46875 11.8697 5.95842 12.3594 6.5625 12.3594H21.4375C22.0416 12.3594 22.5312 11.8697 22.5312 11.2656ZM11.5938 15.6406C11.5938 15.0365 11.1041 14.5469 10.5 14.5469H6.5625C5.95842 14.5469 5.46875 15.0365 5.46875 15.6406C5.46875 16.2447 5.95842 16.7344 6.5625 16.7344H10.5C11.1041 16.7344 11.5938 16.2447 11.5938 15.6406ZM5.46875 6.78125C5.46875 7.53632 6.08087 8.14844 6.83594 8.14844C7.59101 8.14844 8.20312 7.53632 8.20312 6.78125C8.20312 6.02618 7.59101 5.41406 6.83594 5.41406C6.08087 5.41406 5.46875 6.02618 5.46875 6.78125Z" fill="#0063CB"/>
</g>
<defs>
<clipPath id="clip0_836_163555">
<rect width="28" height="28" fill="white"/>
</clipPath>
</defs>
</svg>
