<?xml version="1.0" encoding="UTF-8"?>
<svg xmlns="http://www.w3.org/2000/svg" width="138" height="138" viewBox="0 0 138 138" fill="none">
  <g clip-path="url(#clip0_191_62688)">
    <path d="M132.526 104.971L76.5976 137.264L13.618 100.816L69.546 68.5298L132.526 104.971Z" fill="#E8EDFF"></path>
    <path opacity="0.5" d="M132.526 104.971L76.5976 137.264L13.618 100.816L69.546 68.5298L132.526 104.971Z" fill="#161616"></path>
    <path d="M69.546 24.7563V68.5297L13.618 100.816V57.0499L69.546 24.7563Z" fill="#E8EDFF"></path>
    <path opacity="0.23" d="M69.546 24.7563V68.5297L13.618 100.816V57.0499L69.546 24.7563Z" fill="#161616"></path>
    <path d="M76.5976 93.4909V137.264L13.618 100.816V57.0498L76.5976 93.4909Z" fill="#E8EDFF"></path>
    <path opacity="0.38" d="M76.5976 93.4909V137.264L13.618 100.816V57.0498L76.5976 93.4909Z" fill="#161616"></path>
    <path d="M132.525 61.1974V104.971L69.5459 68.5297V24.7563L132.525 61.1974Z" fill="#E8EDFF"></path>
    <path opacity="0.4" d="M132.525 61.1974V104.971L69.5459 68.5297V24.7563L132.525 61.1974Z" fill="#161616"></path>
    <path d="M132.526 104.971V61.1973L76.5977 93.4908V137.264L132.526 104.971Z" fill="#E8EDFF"></path>
    <path opacity="0.23" d="M132.526 104.971V61.1973L76.5977 93.4908V137.264L132.526 104.971Z" fill="#161616"></path>
    <path d="M69.5459 24.7563L69.6217 0.522949L132.45 37.0095L132.525 61.1974L69.5459 24.7563Z" fill="#E8EDFF"></path>
    <path opacity="0.2" d="M69.5459 24.7563L69.6217 0.522949L132.45 37.0095L132.525 61.1974L69.5459 24.7563Z" fill="#161616"></path>
    <path d="M76.5977 93.4912L81.8447 72.2908L137.265 40.293L132.526 61.1977L76.5977 93.4912Z" fill="#E8EDFF"></path>
    <path opacity="0.3" d="M76.5977 93.4912L81.8447 72.2908L137.265 40.293L132.526 61.1977L76.5977 93.4912Z" fill="#161616"></path>
    <path d="M13.6181 57.0498L6.94556 35.0608L62.8735 2.7749L69.546 24.7563L13.6181 57.0498Z" fill="#E8EDFF"></path>
    <path opacity="0.1" d="M13.6181 57.0498L6.94556 35.0608L62.8735 2.7749L69.546 24.7563L13.6181 57.0498Z" fill="#161616"></path>
    <path d="M13.618 57.0501L0.454956 38.875L63.4421 75.3161L76.5976 93.4912L13.618 57.0501Z" fill="#E8EDFF"></path>
    <path opacity="0.45" d="M13.618 57.0501L0.454956 38.875L63.4421 75.3161L76.5976 93.4912L13.618 57.0501Z" fill="#161616"></path>
    <g opacity="0.7">
      <path d="M93.0666 124.245C92.9754 124.245 92.8878 124.21 92.8226 124.146C92.7574 124.082 92.7198 123.995 92.7178 123.904V116.2C92.7197 116.108 92.7571 116.021 92.8221 115.956C92.8871 115.891 92.9747 115.853 93.0666 115.852C93.1578 115.854 93.2445 115.891 93.3083 115.956C93.3721 116.022 93.4078 116.109 93.4078 116.2V123.904C93.4078 123.995 93.3718 124.081 93.3078 124.145C93.2438 124.209 93.1571 124.245 93.0666 124.245Z" fill="white"></path>
      <path d="M92.0582 118.869C92.0129 118.876 91.9669 118.876 91.9217 118.869C91.8389 118.831 91.7739 118.763 91.7401 118.678C91.7062 118.593 91.7061 118.499 91.7397 118.414L92.968 115.586L94.3329 117.163C94.3817 117.234 94.4028 117.32 94.3921 117.405C94.3814 117.49 94.3397 117.568 94.2749 117.625C94.2101 117.681 94.1269 117.712 94.041 117.71C93.9552 117.709 93.8728 117.676 93.8097 117.618L93.1652 116.86L92.4069 118.68C92.3742 118.742 92.3235 118.794 92.2614 118.827C92.1993 118.861 92.1285 118.876 92.0582 118.869Z" fill="white"></path>
      <path d="M96.2437 122.433C96.1525 122.431 96.0657 122.393 96.0019 122.328C95.9382 122.263 95.9024 122.175 95.9025 122.084V114.388C95.9025 114.298 95.9384 114.211 96.0024 114.147C96.0664 114.083 96.1532 114.047 96.2437 114.047C96.3342 114.047 96.421 114.083 96.4849 114.147C96.5489 114.211 96.5849 114.298 96.5849 114.388V122.077C96.5859 122.122 96.5779 122.168 96.5613 122.211C96.5447 122.253 96.5198 122.292 96.4881 122.326C96.4564 122.359 96.4185 122.385 96.3766 122.404C96.3346 122.422 96.2895 122.432 96.2437 122.433Z" fill="white"></path>
      <path d="M95.2351 117.057C95.1899 117.064 95.1439 117.064 95.0986 117.057C95.057 117.039 95.0194 117.013 94.9881 116.98C94.9567 116.947 94.9322 116.908 94.9159 116.866C94.8997 116.824 94.8921 116.779 94.8935 116.733C94.8949 116.688 94.9054 116.643 94.9242 116.602L96.145 113.736L97.5099 115.305C97.5729 115.37 97.6081 115.457 97.6081 115.548C97.6081 115.639 97.5729 115.726 97.5099 115.791C97.4781 115.823 97.4403 115.848 97.3987 115.866C97.357 115.883 97.3123 115.892 97.2672 115.892C97.2221 115.892 97.1774 115.883 97.1357 115.866C97.0941 115.848 97.0563 115.823 97.0246 115.791L96.3801 115.032L95.6218 116.852C95.5904 116.925 95.5349 116.986 95.4646 117.023C95.3942 117.06 95.3133 117.072 95.2351 117.057Z" fill="white"></path>
    </g>
    <g opacity="0.7">
      <path d="M83.8996 129.469C83.77 129.471 83.6421 129.44 83.528 129.379C83.3909 129.291 83.2799 129.168 83.2066 129.022C83.1332 128.877 83.1002 128.715 83.111 128.552V127.604C83.113 127.513 83.1506 127.426 83.2158 127.362C83.281 127.299 83.3686 127.263 83.4598 127.263C83.5503 127.263 83.6371 127.299 83.7011 127.363C83.7651 127.427 83.801 127.514 83.801 127.604V128.552C83.801 128.689 83.801 128.764 83.8693 128.779C83.9375 128.795 83.9754 128.78 84.0891 128.719C84.3025 128.522 84.4707 128.281 84.5819 128.012C84.6932 127.744 84.745 127.455 84.7336 127.164V123.222C84.7336 123.131 84.7696 123.044 84.8336 122.98C84.8976 122.916 84.9844 122.88 85.0749 122.88C85.1653 122.88 85.2521 122.916 85.3161 122.98C85.3801 123.044 85.4161 123.131 85.4161 123.222V127.164C85.433 127.574 85.3533 127.981 85.1834 128.354C85.0134 128.727 84.758 129.055 84.4379 129.31C84.2759 129.41 84.09 129.465 83.8996 129.469Z" fill="white"></path>
      <path d="M80.2827 126.293V125.701C80.3728 124.182 80.8167 122.706 81.579 121.389C82.3413 120.073 83.4008 118.953 84.6729 118.119C85.9164 117.406 87.0993 117.3 88.0092 117.831C88.4945 118.163 88.8814 118.62 89.1296 119.154C89.3777 119.688 89.4778 120.278 89.4195 120.864V121.061L80.2827 126.293ZM86.7353 118.149C86.1282 118.177 85.5383 118.36 85.0217 118.68C83.9316 119.397 83.0085 120.341 82.3151 121.446C81.6217 122.552 81.1743 123.793 81.003 125.087L88.7144 120.628C88.7473 120.189 88.6661 119.749 88.4788 119.351C88.2915 118.952 88.0043 118.609 87.6452 118.354C87.3651 118.207 87.0513 118.136 86.7353 118.149Z" fill="white"></path>
    </g>
    <path opacity="0.7" d="M0.454956 38.875L63.4421 75.3161L76.5976 93.4912L62.7445 75.9606L0.454956 38.875Z" fill="white"></path>
    <path opacity="0.7" d="M132.526 61.1973L76.5977 93.4908V137.264L77.644 94.3703L132.526 61.1973Z" fill="white"></path>
  </g>
  <defs>
    <clipPath id="clip0_191_62688">
      <rect width="138" height="138" fill="white"></rect>
    </clipPath>
  </defs>
</svg>
