<?xml version="1.0" encoding="UTF-8"?>

<svg width="486" height="363" viewBox="0 0 486 363" fill="none" xmlns="http://www.w3.org/2000/svg">
  <path d="M486 318.233H0V318.476H486V318.233Z" fill="#EBEBEB"/>
  <path d="M410.728 324.852H385.485V325.095H410.728V324.852Z" fill="#EBEBEB"/>
  <path d="M306.822 326.602H298.375V326.845H306.822V326.602Z" fill="#EBEBEB"/>
  <path d="M437.303 333.872H418.65V334.115H437.303V333.872Z" fill="#EBEBEB"/>
  <path d="M66.7861 326.485H50.9911V326.728H66.7861V326.485Z" fill="#EBEBEB"/>
  <path d="M107.785 326.485H71.9863V326.728H107.785V326.485Z" fill="#EBEBEB"/>
  <path d="M287.07 330.587H196.014V330.83H287.07V330.587Z" fill="#EBEBEB"/>
  <path d="M230.364 274.882H42.6805C41.2102 274.879 39.801 274.293 38.7623 273.253C37.7235 272.212 37.1401 270.802 37.1401 269.331V5.50152C37.1529 4.03966 37.742 2.64187 38.7794 1.61179C39.8167 0.581701 41.2186 0.00250425 42.6805 0H230.364C231.836 0 233.248 0.584743 234.289 1.62559C235.329 2.66644 235.914 4.07814 235.914 5.55012V269.331C235.914 270.803 235.329 272.215 234.289 273.256C233.248 274.297 231.836 274.882 230.364 274.882V274.882ZM42.6805 0.194401C41.2747 0.196976 39.9273 0.757251 38.9341 1.75225C37.9409 2.74725 37.3831 4.09567 37.3831 5.50152V269.331C37.3831 270.737 37.9409 272.086 38.9341 273.081C39.9273 274.076 41.2747 274.636 42.6805 274.639H230.364C231.771 274.636 233.119 274.076 234.114 273.081C235.109 272.087 235.669 270.738 235.671 269.331V5.50152C235.669 4.09477 235.109 2.74638 234.114 1.75166C233.119 0.756935 231.771 0.19697 230.364 0.194401H42.6805Z" fill="#EBEBEB"/>
  <path d="M440.617 274.882H252.924C251.453 274.879 250.043 274.293 249.002 273.253C247.962 272.213 247.377 270.803 247.374 269.331V5.50152C247.389 4.03877 247.981 2.641 249.019 1.61118C250.058 0.581362 251.461 0.00247694 252.924 0H440.617C442.078 0.00505877 443.477 0.585386 444.512 1.6152C445.548 2.64501 446.135 4.04133 446.148 5.50152V269.331C446.148 270.8 445.566 272.209 444.529 273.249C443.493 274.289 442.086 274.876 440.617 274.882V274.882ZM252.924 0.194401C251.517 0.19697 250.169 0.756935 249.174 1.75166C248.18 2.74638 247.62 4.09477 247.617 5.50152V269.331C247.62 270.738 248.18 272.087 249.174 273.081C250.169 274.076 251.517 274.636 252.924 274.639H440.617C442.024 274.636 443.372 274.076 444.367 273.081C445.362 272.087 445.922 270.738 445.924 269.331V5.50152C445.922 4.09477 445.362 2.74638 444.367 1.75166C443.372 0.756935 442.024 0.19697 440.617 0.194401H252.924Z" fill="#EBEBEB"/>
  <path d="M206.91 246.042H161.439V318.233H206.91V246.042Z" fill="#F0F0F0"/>
  <path d="M63.2772 318.233H161.439V246.042H63.2772L63.2772 318.233Z" fill="#F5F5F5"/>
  <path d="M62.8009 304.693H111.1V277.535H62.8009V304.693Z" fill="#FAFAFA"/>
  <g style="mix-blend-mode:multiply" opacity="0.7">
    <path d="M206.91 252.555H62.8009V256.044H206.91V252.555Z" fill="#E6E6E6"/>
  </g>
  <path d="M209.417 243.933H161.439V254.023H209.417V243.933Z" fill="#F0F0F0"/>
  <path d="M60.7694 254.022H161.439V243.933H60.7694V254.022Z" fill="#F5F5F5"/>
  <path d="M71.5684 243.748H103.518V193.02H71.5684V243.748Z" fill="#F5F5F5"/>
  <path d="M172.501 193.02H103.518V243.748H172.501V193.02Z" fill="#F0F0F0"/>
  <path d="M172.831 215.152H138.889V234.233H172.831V215.152Z" fill="#F5F5F5"/>
  <g style="mix-blend-mode:multiply" opacity="0.7">
    <path d="M71.5586 200.047H172.831V197.598H71.5586V200.047Z" fill="#E6E6E6"/>
  </g>
  <path d="M69.7993 198.628H103.518V191.542H69.7993V198.628Z" fill="#F5F5F5"/>
  <path d="M174.26 191.542H103.518V198.628H174.26V191.542Z" fill="#F0F0F0"/>
  <path d="M45.9659 164.443L214.443 164.443L214.443 33.8645L45.9659 33.8645L45.9659 164.443Z" fill="#E6E6E6"/>
  <path d="M42.457 164.443L210.934 164.443L210.934 33.8645L42.457 33.8645L42.457 164.443Z" fill="#F5F5F5"/>
  <path d="M34.331 172.005L214.443 172.005V164.443L34.331 164.443V172.005Z" fill="#E6E6E6"/>
  <path d="M30.3847 172.005L202.73 172.005V164.443L30.3847 164.443V172.005Z" fill="#F5F5F5"/>
  <path d="M204.645 157.658V40.6685L48.7653 40.6685V157.658H204.645Z" fill="#FAFAFA"/>
  <path d="M106.677 157.658L150.33 40.6685H105.812L62.1594 157.658H106.677Z" fill="white"/>
  <path d="M138.85 157.658L182.503 40.6685H157.979L114.336 157.658H138.85Z" fill="white"/>
  <path d="M130.209 157.658V40.6685H123.191V157.658H130.209Z" fill="#F5F5F5"/>
  <path d="M51.4188 157.658L51.4188 40.6685H48.7653L48.7653 157.658H51.4188Z" fill="#E6E6E6"/>
  <path d="M132.863 157.649V40.6588H130.209V157.649H132.863Z" fill="#E6E6E6"/>
  <path d="M278.06 318.233H402.797L402.797 12.5291H278.06L278.06 318.233Z" fill="#F0F0F0"/>
  <path d="M278.06 318.233H396.887L396.887 12.5291H278.06L278.06 318.233Z" fill="#F5F5F5"/>
  <path d="M390.627 311.293V19.4594L284.32 19.4594V311.293H390.627Z" fill="#F0F0F0"/>
  <path d="M307.23 150.932H298.871C296.299 150.932 294.215 153.017 294.215 155.588V156.074C294.215 158.645 296.299 160.73 298.871 160.73H307.23C309.801 160.73 311.886 158.645 311.886 156.074V155.588C311.886 153.017 309.801 150.932 307.23 150.932Z" fill="white"/>
  <path d="M285.953 311.293V19.4594H284.329V311.293H285.953Z" fill="#F0F0F0"/>
  <path d="M243 362.128C347.084 362.128 431.461 357.202 431.461 351.125C431.461 345.048 347.084 340.122 243 340.122C138.916 340.122 54.5389 345.048 54.5389 351.125C54.5389 357.202 138.916 362.128 243 362.128Z" fill="#F5F5F5"/>
  <path d="M163.588 95.8101C163.869 96.9181 163.588 97.8415 163.043 97.8804C162.499 97.9193 161.741 97.0639 161.459 95.9364C161.177 94.8089 161.41 93.9147 162.003 93.8661C162.596 93.8175 163.296 94.7117 163.588 95.8101Z" fill="white"/>
  <path d="M164.403 103.966C164.962 103.834 165.203 102.825 164.942 101.712C164.68 100.599 164.015 99.8036 163.455 99.935C162.896 100.066 162.655 101.075 162.917 102.188C163.179 103.302 163.844 104.097 164.403 103.966Z" fill="white"/>
  <path d="M182.464 291.921H86.7121V348.326H182.464V291.921Z" fill="#0063CB"/>
  <path opacity="0.7" d="M182.464 291.921H86.7121V348.326H182.464V291.921Z" fill="white"/>
  <path opacity="0.3" d="M111.333 291.921H86.7121V348.326H111.333V291.921Z" fill="#0063CB"/>
  <path opacity="0.7" d="M157.085 291.921H136.721V302.253H157.085V291.921Z" fill="white"/>
  <path opacity="0.7" d="M102.974 291.921H95.0713V302.253H102.974V291.921Z" fill="white"/>
  <path opacity="0.3" d="M177.098 331.714H165.843V342.97H177.098V331.714Z" fill="#0063CB"/>
  <path opacity="0.3" d="M162.528 331.714H151.272V342.97H162.528V331.714Z" fill="#0063CB"/>
  <path d="M93.9729 291.921H159.019V253.595H93.9729V291.921Z" fill="#0063CB"/>
  <path opacity="0.7" d="M93.9729 291.921H159.019V253.595H93.9729V291.921Z" fill="white"/>
  <path opacity="0.3" d="M142.291 253.605H93.9729V291.93H142.291V253.605Z" fill="#0063CB"/>
  <path opacity="0.7" d="M111.216 260.622H125.048V253.605H111.216V260.622Z" fill="white"/>
  <path opacity="0.7" d="M147.977 260.622H153.343V253.605H147.977V260.622Z" fill="white"/>
  <path opacity="0.3" d="M97.6082 288.285H105.258V280.636H97.6082V288.285Z" fill="#0063CB"/>
  <path opacity="0.3" d="M107.513 288.285H115.163V280.636H107.513V288.285Z" fill="#0063CB"/>
  <path d="M206.803 344.098H271.995V305.694H206.803V344.098Z" fill="#0063CB"/>
  <path opacity="0.7" d="M206.803 344.098H271.995V305.694H206.803V344.098Z" fill="white"/>
  <path opacity="0.3" d="M255.237 305.694H206.812V344.098H255.237V305.694Z" fill="#0063CB"/>
  <path opacity="0.7" d="M206.812 330.393H210.457V319.458H206.812V330.393Z" fill="white"/>
  <path opacity="0.7" d="M250.62 330.402H259.845V319.467H250.62V330.402Z" fill="white"/>
  <path opacity="0.3" d="M263.033 340.103H266.104V332.434H263.033V340.103Z" fill="#0063CB"/>
  <path opacity="0.3" d="M267.008 340.103H270.08V332.434H267.008V340.103Z" fill="#0063CB"/>
  <path d="M234.009 324.93L218.35 328.41L224.338 345.322L237.421 342.436L234.009 324.93Z" fill="#FFB573"/>
  <path opacity="0.2" d="M234.009 324.939L218.34 328.419L221.694 337.887L235.924 334.737L234.009 324.939Z" fill="black"/>
  <path d="M197.044 259.368C190.463 236.769 174.056 213.189 183.105 191.669L228.352 191.542C228.352 191.542 231.997 240.706 233.124 261.604C234.301 283.338 236.672 331.413 236.672 331.413L218.817 335.301C218.817 335.301 201.525 299.376 197.044 259.368Z" fill="#263238"/>
  <path opacity="0.2" d="M181.297 214.122C183.504 226.136 189.54 238.422 194.079 250.582C199.542 227.623 198.871 200.63 181.297 214.122Z" fill="black"/>
  <path d="M248.278 340.919C248.278 340.919 244.108 342.795 239.005 339.831C238.697 339.695 238.363 339.63 238.026 339.64C237.69 339.65 237.36 339.735 237.061 339.889C234.437 340.978 227.429 343.641 222.899 343.077C222.8 343.061 222.698 343.071 222.603 343.104C222.508 343.137 222.422 343.193 222.354 343.267C222.286 343.341 222.237 343.431 222.212 343.528C222.186 343.625 222.185 343.728 222.209 343.825C222.854 346.217 223.293 348.659 223.521 351.125L227.672 350.241L228.206 348.773L230.393 349.677C237.25 348.623 243.979 346.864 250.475 344.428C251.077 341.775 248.278 340.919 248.278 340.919Z" fill="#0063CB"/>
  <path d="M167.699 327.914L152.769 328.06L152.118 345.663L164.589 345.565L167.699 327.914Z" fill="#FFB573"/>
  <path opacity="0.2" d="M167.699 327.924L152.759 328.06L152.4 337.925L165.959 337.809L167.699 327.924Z" fill="black"/>
  <path d="M151.467 259.368C150.261 236.769 148.619 202.992 156.191 192.582L202.681 191.542C202.681 191.542 189.754 241.056 184.933 261.857C179.917 283.532 167.621 334.757 167.621 334.757H151.486C151.486 334.757 145.392 285.156 151.467 259.368Z" fill="#263238"/>
  <path d="M221.791 117.67L222.5 119.362L223.336 121.306C223.92 122.579 224.503 123.872 225.135 125.116C226.354 127.576 227.707 129.967 229.188 132.279C229.907 133.387 230.656 134.466 231.433 135.448C232.161 136.421 232.943 137.353 233.776 138.238C235.203 139.758 236.839 141.067 238.636 142.126L235.243 141.377C236.923 141.636 238.618 141.773 240.317 141.786C242.165 141.811 244.013 141.714 245.848 141.494C247.792 141.29 249.736 140.959 251.68 140.522C252.652 140.318 253.624 140.104 254.654 139.851L256.141 139.492L256.87 139.307C257.072 139.241 257.281 139.199 257.492 139.181L261.021 139.812C261.904 139.963 262.728 140.354 263.402 140.944C264.077 141.533 264.575 142.297 264.843 143.152C265.11 144.007 265.136 144.919 264.918 145.787C264.7 146.656 264.246 147.448 263.606 148.074L262.8 148.871L262.08 149.562C261.594 150.009 261.108 150.446 260.603 150.864C259.631 151.69 258.571 152.487 257.492 153.226C255.322 154.712 253.029 156.013 250.64 157.114C248.157 158.243 245.577 159.144 242.932 159.806C240.157 160.5 237.315 160.891 234.456 160.973C233.621 161.001 232.789 160.866 232.007 160.574L231.035 160.224C228.897 159.416 226.838 158.414 224.882 157.231C223.048 156.095 221.306 154.818 219.672 153.411C218.125 152.076 216.655 150.655 215.269 149.153C213.918 147.676 212.712 146.15 211.546 144.604C210.38 143.059 209.33 141.484 208.348 139.88C207.366 138.277 206.404 136.673 205.578 135.02C204.752 133.368 203.926 131.716 203.206 130.015C202.847 129.159 202.487 128.304 202.157 127.429L201.661 126.078L201.418 125.388L201.146 124.542C200.276 121.877 200.469 118.978 201.685 116.451C202.901 113.924 205.046 111.965 207.672 110.981C210.298 109.998 213.202 110.067 215.779 111.174C218.355 112.281 220.405 114.34 221.499 116.922L221.791 117.67Z" fill="#FFB573"/>
  <path d="M256.277 149.533L254.11 143.632C254.178 137.023 262.654 138.588 262.654 138.588L268.982 137.178C269.763 137.074 270.556 137.248 271.222 137.671C271.887 138.095 272.381 138.739 272.617 139.492L274.162 143.603C274.53 144.43 274.561 145.367 274.249 146.217C273.936 147.066 273.306 147.76 272.49 148.152L266.911 150.096C265.854 150.504 264.711 150.641 263.587 150.495L256.277 149.533Z" fill="#FFB573"/>
  <path d="M208.766 100.456C218.088 104.344 226.262 121.247 226.262 121.247C225.834 125.33 216.445 136.731 208.164 139.657C208.164 139.657 201.709 136.974 197.646 128.158C192.456 116.747 198.881 96.3349 208.766 100.456Z" fill="#0063CB"/>
  <path d="M203.517 99.2605C189.71 97.9483 175.8 98.1699 162.042 99.9215C160.158 100.2 158.35 100.86 156.73 101.861C155.11 102.862 153.711 104.183 152.619 105.744C151.527 107.304 150.765 109.071 150.38 110.936C149.995 112.802 149.994 114.726 150.378 116.591C156.832 149.066 150.067 185.496 154.266 192.757C154.266 192.757 202.215 193.389 229.023 191.542C236.371 156.288 221.927 134.709 214.666 107.173C213.412 102.468 208.358 99.766 203.517 99.2605Z" fill="#0063CB"/>
  <path d="M166.144 126.078C164.725 128.596 163.15 131.259 161.644 133.854L157.163 141.63C156.434 142.913 155.714 144.196 155.034 145.46C154.354 146.723 153.663 147.977 153.09 149.192C152.517 150.407 151.933 151.613 151.476 152.633C151.253 153.139 151.059 153.605 150.932 153.936L150.845 154.159V154.247C150.786 154.373 150.845 154.12 150.757 153.994L150.709 153.022C150.775 155.191 151.049 157.349 151.525 159.466C152.031 161.896 152.653 164.453 153.382 167.009C154.111 169.565 154.859 172.2 155.646 174.843C156.434 177.487 157.27 180.18 157.979 182.794L158.047 183.028C158.371 184.23 158.278 185.506 157.783 186.648C157.289 187.791 156.423 188.733 155.325 189.32C154.227 189.907 152.963 190.105 151.738 189.882C150.513 189.659 149.4 189.028 148.58 188.092C146.628 185.822 144.798 183.45 143.098 180.986C142.262 179.762 141.416 178.537 140.619 177.264C139.822 175.99 139.054 174.717 138.296 173.376C136.765 170.68 135.383 167.902 134.155 165.055C132.75 161.843 131.741 158.471 131.152 155.015C131.137 154.82 131.137 154.626 131.152 154.431V154.013C131.139 153.15 131.181 152.286 131.278 151.428C131.278 151.078 131.366 150.679 131.414 150.359L131.58 149.445C131.803 148.23 132.066 147.219 132.328 146.237C132.863 144.293 133.494 142.602 134.117 140.94C134.739 139.278 135.4 137.713 136.061 136.168C136.722 134.622 137.46 133.125 138.17 131.638C139.589 128.654 141.086 125.806 142.709 122.958C144.332 120.11 145.907 117.408 147.773 114.609C149.43 112.529 151.79 111.127 154.408 110.667C157.027 110.206 159.724 110.719 161.99 112.109C164.257 113.499 165.937 115.669 166.715 118.212C167.492 120.754 167.314 123.493 166.212 125.913L166.144 126.078Z" fill="#FFB573"/>
  <path d="M157.056 101.797C147.831 105.938 140.133 122.686 140.133 122.686C141.037 128.518 154.091 140.998 160.915 143.35C160.915 143.35 166.61 138.335 169.264 126.651C172.306 113.228 162.042 102.867 157.056 101.797Z" fill="#0063CB"/>
  <path d="M196.986 101.661C196.08 99.9055 194.607 98.5077 192.806 97.6957C192.128 95.9496 192.077 94.0225 192.66 92.2427L172.248 85.7303C173.901 92.5343 175.164 97.822 172.676 101.107C176.69 103.557 184.058 107.911 192.116 107.736C200.174 107.561 198.288 104.49 196.986 101.661Z" fill="#FFB573"/>
  <path opacity="0.2" d="M192.456 92.8746L177.118 91.9706C181.92 97.093 189.19 99.0273 192.505 96.9375C192.146 95.6089 192.13 94.2113 192.456 92.8746Z" fill="black"/>
  <path d="M192.543 107.717L189.229 104.976L184.767 107.212C184.767 107.212 187.596 109.836 192.543 107.717Z" fill="#0063CB"/>
  <path opacity="0.3" d="M192.543 107.717L189.229 104.976L184.767 107.212C184.767 107.212 187.596 109.836 192.543 107.717Z" fill="black"/>
  <path d="M196.811 68.6523C197.073 72.7736 194.419 76.3019 190.881 76.5255C187.343 76.7491 184.272 73.6095 184.009 69.4591C183.747 65.3086 186.4 61.8094 189.938 61.5859C193.477 61.3623 196.548 64.531 196.811 68.6523Z" fill="#263238"/>
  <path d="M199.697 83.3782C199.96 87.4994 197.306 91.0278 193.768 91.2514C190.23 91.4749 187.159 88.3354 186.896 84.1849C186.634 80.0345 189.297 76.5353 192.825 76.3117C196.354 76.0881 199.435 79.2472 199.697 83.3782Z" fill="#263238"/>
  <path d="M168.846 74.6981C170.576 83.66 171.966 89.7155 178.07 93.0301C190.211 99.6299 196.305 94.1284 197.51 84.9138C198.57 76.613 195.566 63.3549 185.594 60.6722C175.767 58.0283 167.106 65.7363 168.846 74.6981Z" fill="#FFB573"/>
  <path d="M192.534 81.648C202.992 79.4804 201.534 89.6767 199.017 93.312C196.801 96.5487 191.999 99.3481 183.659 95.8781C174.989 92.2817 177.303 86.0803 174.532 82.3381C173.56 80.9773 175.738 75.398 177.157 78.3237C180.219 84.6612 188.199 79.9664 192.534 81.648Z" fill="#263238"/>
  <path d="M172.773 82.4936C177.633 85.4096 178.352 80.4816 177.157 78.3723C179.101 76.1076 180.763 68.4093 175.368 67.6803C177.963 68.3704 186.206 67.622 184.855 62.6745C187.985 65.4933 197.403 67.1749 196.811 62.1691C195.955 54.8499 184.767 48.5611 177.157 54.8499C167.981 49.9024 157.279 60.1473 162.732 64.8421C155.734 66.3195 157.279 76.7199 161.294 78.0418C158.193 83.4462 170.528 90.5126 172.773 82.4936Z" fill="#263238"/>
  <path opacity="0.2" d="M183.203 74.7661C182.075 74.3761 180.838 74.4459 179.762 74.9605C180.91 75.122 182.079 75.0559 183.203 74.7661Z" fill="black"/>
  <path opacity="0.2" d="M183.193 75.5923C182.656 75.5261 182.111 75.5789 181.597 75.7468C181.083 75.9148 180.613 76.1939 180.219 76.5643C181.268 76.4565 182.282 76.125 183.193 75.5923Z" fill="black"/>
  <path opacity="0.2" d="M191.601 66.0959C188.725 65.8589 185.832 65.9208 182.969 66.2806C187.781 66.3583 191.601 66.0959 191.601 66.0959Z" fill="black"/>
  <path opacity="0.2" d="M192.855 66.9902C192.855 66.9902 186.255 67.1846 183.135 68.3608C186.4 68.1082 189.646 67.6505 192.855 66.9902V66.9902Z" fill="black"/>
  <path d="M166.212 84.8265C166.968 85.7808 167.904 86.5762 168.969 87.1667C170.033 87.7573 171.204 88.1313 172.413 88.2674C175.66 88.6076 176.389 85.9734 175.329 83.0769C174.357 80.4719 171.111 77.0796 168.059 78.0322C165.007 78.9847 164.385 82.4451 166.212 84.8265Z" fill="#FFB573"/>
  <path d="M186.031 74.8925C186.109 75.6799 186.595 76.2728 187.12 76.2145C187.645 76.1562 187.985 75.466 187.907 74.6787C187.829 73.8914 187.334 73.2887 186.809 73.3471C186.284 73.4054 185.944 74.0955 186.031 74.8925Z" fill="#263238"/>
  <path d="M194.244 74.2316C194.322 75.0189 194.808 75.6215 195.333 75.5535C195.858 75.4855 196.198 74.8051 196.12 74.0177C196.043 73.2304 195.547 72.6278 195.022 72.6861C194.497 72.7444 194.157 73.4345 194.244 74.2316Z" fill="#263238"/>
  <path d="M191.601 75.0481L192.573 81.6771C193.361 81.7232 194.153 81.6412 194.915 81.4341C195.067 81.3848 195.202 81.2951 195.306 81.1746C195.411 81.0541 195.48 80.9074 195.507 80.7503C195.534 80.5932 195.518 80.4317 195.46 80.2833C195.402 80.1348 195.304 80.0051 195.178 79.908C193.185 78.4403 191.601 75.0481 191.601 75.0481Z" fill="#ED893E"/>
  <path d="M181.764 72.8125C181.685 72.808 181.608 72.7847 181.54 72.7445C181.489 72.7102 181.445 72.6662 181.411 72.6148C181.377 72.5634 181.353 72.5058 181.341 72.4452C181.33 72.3847 181.33 72.3224 181.342 72.262C181.355 72.2015 181.379 72.1442 181.414 72.0932C181.81 71.4613 182.351 70.9326 182.991 70.5506C183.632 70.1687 184.354 69.9445 185.098 69.8965C185.227 69.8965 185.35 69.9477 185.442 70.0389C185.533 70.13 185.584 70.2536 185.584 70.3825C185.584 70.5114 185.533 70.635 185.442 70.7262C185.35 70.8173 185.227 70.8685 185.098 70.8685C184.506 70.9123 183.932 71.0965 183.425 71.4058C182.918 71.7151 182.492 72.1407 182.182 72.6473C182.131 72.7071 182.067 72.7535 181.994 72.7823C181.921 72.8111 181.842 72.8215 181.764 72.8125V72.8125Z" fill="#263238"/>
  <path d="M197.248 71.9279C197.172 71.9333 197.096 71.9202 197.027 71.8897C196.958 71.8592 196.897 71.8123 196.849 71.7529C196.493 71.2863 196.032 70.9102 195.504 70.6552C194.975 70.4002 194.394 70.2734 193.807 70.2852C193.746 70.2919 193.685 70.2863 193.626 70.2688C193.568 70.2513 193.513 70.2222 193.466 70.1832C193.419 70.1442 193.38 70.0961 193.352 70.0419C193.324 69.9876 193.306 69.9282 193.302 69.8672C193.293 69.7444 193.331 69.6229 193.409 69.5273C193.487 69.4316 193.598 69.369 193.72 69.3521C194.465 69.319 195.208 69.466 195.885 69.7807C196.561 70.0954 197.152 70.5685 197.608 71.16C197.683 71.2585 197.718 71.3828 197.703 71.5063C197.689 71.6298 197.627 71.7428 197.53 71.821C197.448 71.8834 197.35 71.9206 197.248 71.9279V71.9279Z" fill="#263238"/>
  <path d="M173.658 96.7334C173.658 96.7334 180.646 104.509 189.21 104.957C184.213 107.319 180.607 112.392 180.607 112.392C180.607 112.392 171.5 110.166 169.478 98.7843C170.829 97.2 173.658 96.7334 173.658 96.7334Z" fill="#EBEBEB"/>
  <path d="M192.543 107.717L196.305 104.354L201.087 105.773C201.087 105.773 197.471 109.836 192.543 107.717Z" fill="#0063CB"/>
  <path opacity="0.3" d="M192.543 107.717L196.305 104.354L201.087 105.773C201.087 105.773 197.471 109.836 192.543 107.717Z" fill="black"/>
  <path d="M192.806 97.6956C192.806 97.6956 196.14 101.584 196.305 104.354C200.271 105.89 203.935 110.925 203.935 110.925C203.935 110.925 202.963 102.954 196.684 98.4246C195.494 97.7987 194.143 97.5448 192.806 97.6956V97.6956Z" fill="#EBEBEB"/>
  <path d="M150.009 351.116H153.255L154.13 349.794L155.831 351.125H175.417C175.539 349.584 175.251 348.038 174.581 346.644C174.581 346.644 168.749 346.11 166.474 343.194C166.394 343.08 166.283 342.992 166.153 342.94C166.024 342.888 165.882 342.875 165.745 342.902C163.801 343.31 156.025 344.778 151.787 343.242C151.682 343.198 151.567 343.18 151.453 343.19C151.339 343.2 151.23 343.238 151.134 343.3C151.038 343.363 150.959 343.448 150.903 343.548C150.848 343.648 150.818 343.76 150.815 343.874C150.73 346.305 150.46 348.726 150.009 351.116V351.116Z" fill="#0063CB"/>
  <path d="M254.742 141.183C257.026 136.323 261.876 136.197 265.609 134.943C266.241 134.729 267.368 136.109 266.649 137.081C266.259 137.715 265.746 138.265 265.14 138.697C264.533 139.13 263.847 139.436 263.12 139.599C263.072 141.28 261.264 145.819 256.501 145.713C255.382 144.468 254.756 142.857 254.742 141.183V141.183Z" fill="#FFB573"/>
  <path d="M194.099 84.6708C194.099 84.6708 191.387 84.0488 183.737 83.9516C184.495 85.5748 186.459 86.7898 190.376 86.8676C193.525 87.0134 194.099 84.6708 194.099 84.6708Z" fill="white"/>
  <path d="M155.919 180.705L150.145 183.183C145.392 187.771 152.351 192.855 152.351 192.855L154.713 196.655C155.173 197.296 155.845 197.754 156.611 197.946C157.376 198.138 158.185 198.053 158.893 197.705L162.936 196.004C163.791 195.703 164.494 195.081 164.897 194.269C165.3 193.458 165.371 192.522 165.094 191.659L163.607 188.063C163.173 187.013 162.485 186.088 161.605 185.37L155.919 180.705Z" fill="#FFB573"/>
  <path d="M344.671 91.922C338.752 82.3867 341.094 76.7686 347.587 75.641L373.549 85.4096C382.783 96.5585 364.801 95.9072 374.774 104.791C384.747 113.675 355.956 124.97 341.804 113.364C327.651 101.759 350.581 101.457 344.671 91.922Z" fill="#263238"/>
  <path d="M384.368 343.33L392.523 341.522C391.386 333.746 390.968 324.706 390.015 319.905L380.596 321.217L384.368 343.33Z" fill="#FFC3BD"/>
  <path d="M324.463 344.652L332.142 344.584C332.852 336.808 335.593 327.535 335.855 322.636L326.368 322.403L324.463 344.652Z" fill="#FFC3BD"/>
  <path d="M378.818 351.116C385.311 349.745 384.825 349.745 388.44 348.841C391.541 348.073 392.377 348.297 394.875 347.714C396.965 347.218 396.459 345.235 395.322 343.058C394.826 342.086 394.156 341.007 393.446 339.568C393.352 339.367 393.191 339.204 392.991 339.107C392.792 339.01 392.564 338.984 392.348 339.034L383.794 340.851C383.625 340.887 383.468 340.967 383.34 341.083C383.212 341.199 383.117 341.347 383.065 341.512C382.517 342.94 381.654 344.225 380.54 345.272C379.426 346.319 378.089 347.1 376.631 347.558C373.248 348.773 376.232 351.67 378.818 351.116Z" fill="#263238"/>
  <path d="M314.432 351.116C319.176 351.116 322.315 350.688 325.999 350.562C329.158 350.455 329.586 351.116 332.803 351.116C334.912 351.116 335.505 348.744 334.971 346.956C334.451 345.598 334.01 344.213 333.649 342.805C333.608 342.603 333.496 342.422 333.334 342.294C333.172 342.166 332.971 342.099 332.764 342.105H323.938C323.772 342.111 323.61 342.153 323.462 342.228C323.314 342.304 323.185 342.411 323.083 342.543C321.999 344.011 320.594 345.212 318.975 346.054C317.357 346.897 315.567 347.358 313.742 347.403C310.146 347.685 311.827 351.116 314.432 351.116Z" fill="#263238"/>
  <path d="M330.655 173.288C330.655 173.288 327.156 220.226 328.546 250.076C327.059 278.06 324.92 334.543 324.92 334.543C325.076 335.972 332.609 335.408 333.921 334.543C333.921 334.543 350.153 295.469 346.042 250.076C363.878 202.73 361.885 173.288 361.885 173.288H330.655Z" fill="#0063CB"/>
  <path opacity="0.2" d="M348.345 192.126C351.125 192.582 358.581 197.88 359.553 201.223C357.596 212.568 354.855 223.763 351.349 234.728C346.858 222.248 346.119 204.237 348.345 192.126Z" fill="black"/>
  <path d="M340.025 173.288C340.025 173.288 352.933 226.272 359.125 252.283C365.618 279.606 378.934 315.56 381.666 333.532C383.367 334.096 388.732 333.017 391.522 331.442C391.522 331.442 393.874 279.8 378.176 253.498C381.724 188.772 366.512 173.288 366.512 173.288H340.025Z" fill="#0063CB"/>
  <path d="M380.13 329.994C380.363 331.223 380.509 332.467 380.567 333.717C380.568 333.822 380.591 333.926 380.634 334.022C380.676 334.118 380.738 334.204 380.816 334.275C380.893 334.346 380.985 334.401 381.084 334.435C381.183 334.469 381.289 334.483 381.393 334.475C385.126 334.29 390.141 332.337 391.765 331.685C391.913 331.626 392.038 331.522 392.124 331.388C392.209 331.254 392.25 331.096 392.241 330.937L392.056 327.409C392.05 327.293 392.018 327.181 391.963 327.08C391.908 326.978 391.831 326.89 391.739 326.821C391.646 326.753 391.539 326.705 391.426 326.683C391.313 326.66 391.196 326.662 391.084 326.689L380.703 329.11C380.513 329.156 380.347 329.273 380.241 329.438C380.134 329.602 380.094 329.801 380.13 329.994V329.994Z" fill="#263238"/>
  <path opacity="0.1" d="M380.13 329.994C380.363 331.223 380.509 332.467 380.567 333.717C380.568 333.822 380.591 333.926 380.634 334.022C380.676 334.118 380.738 334.204 380.816 334.275C380.893 334.346 380.985 334.401 381.084 334.435C381.183 334.469 381.289 334.483 381.393 334.475C385.126 334.29 390.141 332.337 391.765 331.685C391.913 331.626 392.038 331.522 392.124 331.388C392.209 331.254 392.25 331.096 392.241 330.937L392.056 327.409C392.05 327.293 392.018 327.181 391.963 327.08C391.908 326.978 391.831 326.89 391.739 326.821C391.646 326.753 391.539 326.705 391.426 326.683C391.313 326.66 391.196 326.662 391.084 326.689L380.703 329.11C380.513 329.156 380.347 329.273 380.241 329.438C380.134 329.602 380.094 329.801 380.13 329.994V329.994Z" fill="white"/>
  <path d="M324.075 330.558C324.007 331.53 323.861 333.27 323.715 334.543C323.693 334.745 323.751 334.948 323.876 335.107C324.001 335.267 324.184 335.372 324.386 335.398C327.708 335.69 331.05 335.671 334.368 335.34C334.529 335.324 334.681 335.259 334.803 335.152C334.925 335.046 335.011 334.905 335.048 334.747L335.875 331.267C335.904 331.155 335.907 331.038 335.885 330.924C335.863 330.81 335.816 330.703 335.747 330.61C335.678 330.517 335.589 330.44 335.487 330.386C335.384 330.331 335.271 330.3 335.155 330.295L324.93 329.887C324.728 329.865 324.525 329.923 324.366 330.048C324.206 330.174 324.101 330.357 324.075 330.558Z" fill="#263238"/>
  <path opacity="0.1" d="M324.075 330.558C324.007 331.53 323.861 333.27 323.715 334.543C323.693 334.745 323.751 334.948 323.876 335.107C324.001 335.267 324.184 335.372 324.386 335.398C327.708 335.69 331.05 335.671 334.368 335.34C334.529 335.324 334.681 335.259 334.803 335.152C334.925 335.046 335.011 334.905 335.048 334.747L335.875 331.267C335.904 331.155 335.907 331.038 335.885 330.924C335.863 330.81 335.816 330.703 335.747 330.61C335.678 330.517 335.589 330.44 335.487 330.386C335.384 330.331 335.271 330.3 335.155 330.295L324.93 329.887C324.728 329.865 324.525 329.923 324.366 330.048C324.206 330.174 324.101 330.357 324.075 330.558Z" fill="white"/>
  <path d="M341.172 131.463L340.531 132.532L339.928 133.504C339.529 134.126 339.111 134.71 338.703 135.293C337.877 136.469 336.992 137.587 336.098 138.685C334.292 140.881 332.344 142.956 330.266 144.896C329.294 145.868 328.157 146.84 327.088 147.744C326.019 148.648 324.872 149.542 323.695 150.359C321.371 152.051 318.928 153.575 316.386 154.917L316.036 155.102C315.147 155.59 314.127 155.787 313.12 155.666C311.585 155.481 310.081 155.092 308.649 154.509C307.311 153.956 306.04 153.255 304.858 152.419C303.758 151.649 302.736 150.773 301.806 149.805C300.916 148.895 300.094 147.92 299.347 146.889C297.942 144.969 296.737 142.91 295.75 140.746C295.264 139.696 294.837 138.627 294.448 137.558C294.065 136.451 293.741 135.325 293.476 134.185C293.301 133.47 293.381 132.717 293.702 132.055C294.022 131.393 294.564 130.864 295.233 130.559C295.903 130.254 296.657 130.192 297.367 130.383C298.078 130.575 298.699 131.008 299.123 131.609L299.308 131.871C299.794 132.581 300.397 133.446 300.96 134.224C301.524 135.001 302.136 135.779 302.739 136.527C303.901 137.976 305.175 139.331 306.549 140.58C307.728 141.696 309.064 142.632 310.515 143.36C311.61 143.921 312.823 144.215 314.053 144.216L310.748 144.964C312.696 143.663 314.571 142.258 316.367 140.755C318.179 139.233 319.905 137.61 321.538 135.895C323.18 134.185 324.774 132.406 326.252 130.549C327 129.577 327.7 128.683 328.41 127.74L329.382 126.321L329.858 125.631L330.256 125.038L330.509 124.659C331.411 123.241 332.84 122.24 334.481 121.875C336.121 121.511 337.839 121.813 339.257 122.715C340.675 123.617 341.676 125.046 342.041 126.687C342.406 128.327 342.103 130.045 341.201 131.463H341.172Z" fill="#FFC3BD"/>
  <path d="M339.617 118.749C332.891 118.565 326.368 124.834 322.247 131.92C323.219 136.449 333.396 143.934 333.396 143.934C333.396 143.934 348.472 129.393 339.617 118.749Z" fill="#263238"/>
  <path d="M328.624 131.103C328.425 136.57 328.507 142.043 328.867 147.501C329.139 154.616 329.625 161.615 330.655 173.288H366.493C365.764 163.199 366.94 151.69 373.374 128.985C373.754 127.797 373.864 126.539 373.695 125.304C373.526 124.069 373.083 122.887 372.398 121.845C371.713 120.803 370.803 119.927 369.736 119.282C368.669 118.637 367.471 118.239 366.23 118.118C364.811 117.972 363.314 117.855 361.759 117.777C356.342 117.393 350.905 117.393 345.488 117.777C343.719 117.943 341.891 118.166 340.132 118.409C337.04 118.865 334.203 120.38 332.104 122.695C330.005 125.01 328.775 127.982 328.624 131.103V131.103Z" fill="#263238"/>
  <path d="M360.612 99.4551C359.193 104.694 357.453 114.288 360.855 117.777C360.855 117.777 355.898 117.039 345.371 123.551C342.319 119.177 344.584 117.777 344.584 117.777C350.523 116.387 350.698 112.052 349.988 107.989L360.612 99.4551Z" fill="#FFC3BD"/>
  <path d="M347.597 122.239C351.057 122.725 352.146 127.964 352.146 127.964C352.146 127.964 360.476 122.074 363.11 117.923C362.063 117.327 361.048 116.679 360.068 115.979C360.068 115.979 349.619 120.236 347.597 122.239Z" fill="white"/>
  <path d="M344.292 121.675C344.292 121.675 341.298 122.482 340.219 126.7C339.422 119.06 342.99 117.768 342.99 117.768C343.941 117.236 345.055 117.073 346.119 117.311C345.356 117.714 344.757 118.369 344.423 119.165C344.09 119.961 344.044 120.848 344.292 121.675Z" fill="white"/>
  <path opacity="0.2" d="M356.287 102.935L349.998 107.98C350.182 108.941 350.28 109.917 350.289 110.896C352.544 110.565 355.791 108.116 356.199 105.783C356.4 104.847 356.43 103.882 356.287 102.935V102.935Z" fill="black"/>
  <path d="M365.093 88.9576C363.499 97.4043 363.003 101.01 358.182 105.064C350.931 111.158 340.958 107.931 340.006 99.3191C339.15 91.5431 341.891 79.0432 350.6 76.2438C352.452 75.5831 354.446 75.4292 356.377 75.7979C358.308 76.1666 360.106 77.0446 361.583 78.341C363.061 79.6375 364.166 81.3052 364.783 83.1717C365.4 85.0383 365.507 87.0358 365.093 88.9576V88.9576Z" fill="#FFC3BD"/>
  <path d="M365.307 93.3898C360.223 95.4019 356.899 87.3051 358.406 81.7258C349.58 85.8374 335.078 79.8693 337.284 74.0081C340.55 76.4673 342.504 75.6605 342.504 75.6605C342.504 75.6605 369.836 58.1646 367.717 73.6291C382.968 79.7041 374.395 90.4641 365.307 93.3898Z" fill="#263238"/>
  <path d="M345.886 68.7302C344.448 69.7022 345.42 73.4833 352.894 70.0715L355.684 69.3717C349.551 74.708 343.962 78.2267 341.007 76.0299C338.052 73.8332 340.472 67.7485 345.886 68.7302Z" fill="#263238"/>
  <path d="M351.699 90.3961C351.592 91.1154 351.145 91.6694 350.727 91.6305C350.309 91.5917 349.978 90.989 350.076 90.2795C350.173 89.5699 350.639 89.0062 351.096 89.045C351.553 89.0839 351.806 89.6477 351.699 90.3961Z" fill="#263238"/>
  <path d="M343.116 89.8518C343.009 90.571 342.552 91.1154 342.095 91.0862C341.639 91.057 341.357 90.4447 341.454 89.7254C341.551 89.0061 342.008 88.4618 342.474 88.5007C342.941 88.5396 343.165 89.1325 343.116 89.8518Z" fill="#263238"/>
  <path d="M342.62 88.5493L341.007 87.9272C341.007 87.9272 341.677 89.3366 342.62 88.5493Z" fill="#263238"/>
  <path d="M345.303 90.8529C344.443 92.4496 343.381 93.9294 342.144 95.256C342.472 95.5445 342.861 95.754 343.282 95.8686C343.704 95.9832 344.145 95.9997 344.574 95.917L345.303 90.8529Z" fill="#ED847E"/>
  <path d="M348.229 99.1441C347.831 99.1785 347.431 99.1785 347.033 99.1441C347.006 99.1433 346.98 99.1366 346.955 99.1243C346.931 99.1121 346.91 99.0947 346.893 99.0734C346.877 99.052 346.865 99.0273 346.859 99.0009C346.853 98.9745 346.853 98.9471 346.858 98.9206C346.865 98.8648 346.894 98.8137 346.937 98.7777C346.98 98.7417 347.035 98.7233 347.091 98.7262C347.991 98.7943 348.894 98.6603 349.735 98.334C350.576 98.0078 351.333 97.4974 351.952 96.8405C351.991 96.8036 352.043 96.7831 352.097 96.7831C352.151 96.7831 352.204 96.8036 352.243 96.8405C352.28 96.8801 352.301 96.9322 352.301 96.9863C352.301 97.0404 352.28 97.0925 352.243 97.1321C351.2 98.2762 349.77 98.993 348.229 99.1441Z" fill="#263238"/>
  <path d="M366.813 95.2562C366.451 95.9954 365.936 96.6496 365.303 97.1756C364.67 97.7017 363.932 98.0877 363.139 98.3082C361.195 98.7845 360.369 96.51 361.079 94.2744C361.72 92.2624 363.518 89.5894 365.423 90.124C367.329 90.6586 367.853 93.3122 366.813 95.2562Z" fill="#FFC3BD"/>
  <path d="M354.187 85.4C354.125 85.4041 354.064 85.3958 354.005 85.3758C353.947 85.3558 353.893 85.3244 353.847 85.2834C353.425 84.8878 352.922 84.589 352.373 84.4077C351.825 84.2264 351.243 84.167 350.668 84.2336C350.611 84.2481 350.551 84.251 350.493 84.2422C350.434 84.2334 350.378 84.213 350.327 84.1822C350.276 84.1515 350.232 84.111 350.198 84.0631C350.163 84.0152 350.138 83.9608 350.124 83.9031C350.118 83.7815 350.16 83.6623 350.239 83.5701C350.319 83.4779 350.431 83.4197 350.552 83.4074C351.279 83.3122 352.017 83.3777 352.716 83.5994C353.415 83.8211 354.056 84.1936 354.595 84.6905C354.635 84.7317 354.664 84.781 354.682 84.835C354.7 84.889 354.706 84.9463 354.7 85.0028C354.693 85.0594 354.675 85.1138 354.645 85.1623C354.615 85.2108 354.575 85.2521 354.527 85.2834C354.431 85.3604 354.311 85.4016 354.187 85.4Z" fill="#263238"/>
  <path d="M363.295 192.135C371.139 187.713 378.623 180.646 385.903 172.073C377.583 160.341 369.156 149.931 360.427 143.351C352.807 151.331 345.254 158.222 337.809 163.403C346.226 170.46 354.78 180.918 363.295 192.135Z" fill="white"/>
  <path d="M340.987 85.4C340.937 85.4103 340.884 85.4095 340.834 85.3978C340.784 85.386 340.737 85.3636 340.696 85.332C340.611 85.2601 340.557 85.158 340.546 85.0473C340.535 84.9366 340.568 84.8261 340.637 84.739C341.035 84.1887 341.554 83.7369 342.154 83.4184C342.754 83.0999 343.419 82.9233 344.098 82.902C344.152 82.9041 344.206 82.9177 344.255 82.942C344.304 82.9663 344.348 83.0007 344.382 83.0429C344.417 83.0851 344.443 83.1342 344.457 83.1869C344.472 83.2397 344.475 83.295 344.467 83.3491C344.453 83.4599 344.398 83.5616 344.314 83.635C344.23 83.7085 344.122 83.7485 344.01 83.7476C343.472 83.7704 342.945 83.9162 342.472 84.174C341.998 84.4318 341.59 84.7947 341.279 85.2348C341.246 85.2823 341.202 85.3218 341.152 85.3504C341.101 85.379 341.045 85.396 340.987 85.4V85.4Z" fill="#263238"/>
  <path d="M367.731 192.246L388.149 173.944C388.837 173.328 388.895 172.271 388.278 171.584L363.905 144.39C363.288 143.702 362.231 143.645 361.544 144.261L341.125 162.562C340.438 163.179 340.38 164.236 340.996 164.923L365.37 192.117C365.986 192.804 367.043 192.862 367.731 192.246Z" fill="#0063CB"/>
  <path opacity="0.4" d="M367.731 192.246L388.149 173.944C388.837 173.328 388.895 172.271 388.278 171.584L363.905 144.39C363.288 143.702 362.231 143.645 361.544 144.261L341.125 162.562C340.438 163.179 340.38 164.236 340.996 164.923L365.37 192.117C365.986 192.804 367.043 192.862 367.731 192.246Z" fill="white"/>
  <path d="M351.252 89.0547L349.638 88.4423C349.638 88.4423 350.309 89.842 351.252 89.0547Z" fill="#263238"/>
  <path d="M352.496 179.665L353.254 177.099C353.392 176.627 353.641 176.195 353.979 175.839C354.317 175.482 354.735 175.211 355.198 175.048L359.64 173.522C360.516 173.222 361.451 173.136 362.367 173.269C363.283 173.403 364.154 173.752 364.908 174.289L365.88 174.97C364.908 179.305 360.661 183.28 360.661 183.28L359.582 184.544C359.366 184.81 359.1 185.031 358.799 185.193C358.497 185.356 358.167 185.457 357.826 185.491C357.486 185.526 357.142 185.492 356.814 185.393C356.486 185.294 356.182 185.131 355.917 184.913L353.38 182.794C352.946 182.414 352.631 181.916 352.474 181.361C352.317 180.805 352.325 180.216 352.496 179.665V179.665Z" fill="#FFC3BD"/>
  <path d="M291.93 124.999L294.565 125.408C295.055 125.484 295.52 125.676 295.921 125.969C296.321 126.261 296.646 126.645 296.868 127.089L298.968 131.298C299.383 132.125 299.594 133.039 299.582 133.965C299.57 134.89 299.336 135.799 298.9 136.615L298.355 137.645C293.933 137.256 289.432 133.572 289.432 133.572L288.033 132.668C287.741 132.489 287.487 132.254 287.286 131.977C287.085 131.7 286.941 131.386 286.861 131.052C286.782 130.719 286.769 130.374 286.823 130.036C286.877 129.697 286.998 129.373 287.177 129.082L288.937 126.292C289.258 125.811 289.712 125.433 290.243 125.204C290.774 124.975 291.36 124.904 291.93 124.999V124.999Z" fill="#FFC3BD"/>
  <path d="M284.631 140.386C284.593 140.385 284.556 140.376 284.523 140.359C284.489 140.342 284.459 140.318 284.436 140.289C284.016 139.642 283.847 138.864 283.96 138.102C284.048 137.72 284.212 137.359 284.443 137.042C284.673 136.724 284.965 136.457 285.301 136.255C285.326 136.239 285.354 136.228 285.383 136.222C285.412 136.217 285.442 136.218 285.471 136.224C285.5 136.23 285.528 136.242 285.552 136.259C285.576 136.276 285.597 136.298 285.612 136.323C285.629 136.347 285.641 136.375 285.647 136.403C285.653 136.432 285.653 136.462 285.648 136.491C285.642 136.519 285.631 136.547 285.615 136.572C285.599 136.596 285.578 136.617 285.554 136.634C285.269 136.801 285.02 137.024 284.823 137.29C284.626 137.555 284.485 137.858 284.407 138.18C284.317 138.824 284.462 139.48 284.815 140.026C284.838 140.061 284.85 140.1 284.852 140.141C284.855 140.182 284.846 140.223 284.827 140.259C284.808 140.296 284.78 140.327 284.746 140.349C284.711 140.371 284.672 140.384 284.631 140.386V140.386Z" fill="#E0E0E0"/>
  <path d="M289.656 128.304L293.214 132.192C293.324 132.303 293.386 132.453 293.386 132.61C293.386 132.767 293.324 132.917 293.214 133.028L288.431 137.392C288.36 137.457 288.274 137.502 288.181 137.526C288.088 137.55 287.99 137.551 287.897 137.528L284.796 136.78C284.681 136.751 284.578 136.688 284.5 136.6C284.422 136.511 284.373 136.401 284.359 136.284L283.824 133.164C283.812 133.068 283.822 132.971 283.854 132.88C283.886 132.789 283.939 132.706 284.009 132.639L288.791 128.285C288.848 128.227 288.916 128.181 288.991 128.15C289.066 128.12 289.147 128.105 289.228 128.107C289.309 128.109 289.389 128.127 289.462 128.161C289.536 128.195 289.602 128.244 289.656 128.304ZM284.981 136.158C285.048 136.231 285.13 136.291 285.22 136.332C285.311 136.374 285.409 136.398 285.509 136.402C285.608 136.406 285.708 136.391 285.802 136.356C285.895 136.322 285.981 136.269 286.055 136.201C286.128 136.134 286.187 136.052 286.229 135.962C286.271 135.871 286.295 135.773 286.299 135.674C286.303 135.574 286.287 135.474 286.253 135.381C286.219 135.287 286.166 135.201 286.098 135.127C286.029 135.056 285.946 135 285.854 134.961C285.762 134.923 285.663 134.903 285.564 134.903C285.464 134.903 285.366 134.923 285.274 134.961C285.182 135 285.099 135.056 285.029 135.127C284.953 135.191 284.889 135.269 284.843 135.358C284.796 135.446 284.768 135.543 284.759 135.642C284.75 135.741 284.76 135.841 284.79 135.937C284.82 136.032 284.868 136.12 284.932 136.197L284.981 136.158Z" fill="#263238"/>
  <path d="M284.718 139.735C285.222 139.84 285.672 140.119 285.991 140.523C286.309 140.927 286.474 141.431 286.458 141.945C286.442 142.459 286.245 142.951 285.902 143.334C285.559 143.718 285.091 143.968 284.582 144.041L283.484 149.144L282.988 149.465L282.609 148.872V147.822L282.881 147.005L282.774 146.471L282.93 145.742V145.052V144.595L283.046 143.72C282.666 143.483 282.369 143.135 282.195 142.722C282.021 142.31 281.979 141.854 282.074 141.416C282.135 141.131 282.252 140.861 282.419 140.621C282.585 140.382 282.798 140.178 283.044 140.021C283.29 139.865 283.565 139.759 283.852 139.71C284.14 139.66 284.434 139.669 284.718 139.735V139.735ZM284.31 141.679C284.499 141.705 284.691 141.659 284.848 141.549C285.004 141.44 285.114 141.275 285.154 141.089C285.195 140.902 285.164 140.707 285.066 140.542C284.969 140.378 284.814 140.256 284.631 140.201C284.434 140.161 284.229 140.199 284.06 140.308C283.891 140.417 283.771 140.588 283.727 140.785C283.7 140.973 283.745 141.165 283.853 141.321C283.961 141.478 284.124 141.588 284.31 141.63V141.679Z" fill="#0063CB"/>
  <path d="M284.631 140.386C284.591 140.387 284.551 140.376 284.517 140.356C284.482 140.335 284.455 140.305 284.436 140.269C284.419 140.244 284.407 140.216 284.402 140.186C284.397 140.156 284.398 140.126 284.405 140.096C284.412 140.067 284.426 140.039 284.445 140.016C284.464 139.992 284.487 139.972 284.514 139.958C285.054 139.603 285.453 139.07 285.642 138.452C285.703 138.126 285.699 137.791 285.629 137.468C285.558 137.144 285.424 136.837 285.233 136.566C285.218 136.541 285.207 136.512 285.203 136.483C285.198 136.453 285.199 136.423 285.207 136.394C285.214 136.365 285.227 136.338 285.245 136.314C285.263 136.29 285.285 136.27 285.311 136.255C285.362 136.225 285.422 136.215 285.48 136.228C285.538 136.24 285.589 136.274 285.622 136.323C285.845 136.646 286 137.01 286.078 137.394C286.157 137.778 286.157 138.174 286.079 138.559C285.872 139.299 285.398 139.937 284.747 140.347C284.714 140.373 284.673 140.387 284.631 140.386V140.386Z" fill="#E0E0E0"/>
  <path d="M376.825 127.332C377.146 128.032 377.36 128.528 377.603 129.111C377.846 129.694 378.05 130.229 378.264 130.783C378.691 131.9 379.061 133.028 379.42 134.146C380.127 136.408 380.718 138.705 381.189 141.028C381.676 143.373 382.02 145.746 382.22 148.133C382.432 150.557 382.484 152.992 382.375 155.423V155.841C382.362 156.106 382.323 156.37 382.258 156.628C381.875 158.077 381.303 159.469 380.557 160.769C379.942 161.84 379.267 162.875 378.536 163.87C377.19 165.688 375.725 167.415 374.152 169.041C372.616 170.615 371.042 172.102 369.418 173.522C367.795 174.941 366.143 176.272 364.335 177.555C363.724 177.98 362.983 178.178 362.242 178.114C361.5 178.051 360.805 177.73 360.275 177.207C359.745 176.684 359.415 175.993 359.342 175.252C359.268 174.512 359.456 173.769 359.873 173.152V173.084L363.324 168.088C364.461 166.416 365.589 164.764 366.638 163.102C367.688 161.44 368.689 159.777 369.554 158.193C369.951 157.449 370.305 156.683 370.614 155.899C370.838 155.361 370.989 154.796 371.061 154.218L370.935 155.423C370.769 153.479 370.565 151.583 370.215 149.639C369.865 147.695 369.457 145.751 368.952 143.807C368.446 141.863 367.883 139.919 367.251 138.034C366.94 137.062 366.6 136.09 366.279 135.196L365.764 133.806L365.287 132.552L365.161 132.221C364.618 130.696 364.679 129.021 365.332 127.539C365.986 126.058 367.181 124.883 368.673 124.255C370.165 123.627 371.841 123.594 373.357 124.162C374.873 124.731 376.114 125.858 376.825 127.313V127.332Z" fill="#FFC3BD"/>
  <path d="M366.561 118.166C372.393 119.06 374.735 120.839 379.498 132.561C377.34 136.935 367.212 141.115 367.212 141.115C367.212 141.115 359.125 128.479 366.561 118.166Z" fill="#263238"/>
</svg>
