<svg width="28" height="28" viewBox="0 0 28 28" fill="none" xmlns="http://www.w3.org/2000/svg">
<path d="M4.375 22.9124V11.9395C4.375 11.3495 4.6503 10.7933 5.11941 10.4355L13.9647 3.68905C15.0947 2.82723 16.4765 2.46367 17.8196 2.59623L17.3165 2.21249C15.3578 0.718589 12.6421 0.718589 10.6834 2.21249L3.24592 7.88517C1.88967 8.91964 1.09375 10.5277 1.09375 12.2335V21.4358C1.09375 24.2949 3.28787 26.6411 6.08404 26.8835C5.03163 25.8868 4.375 24.4763 4.375 22.9124Z" fill="#E3E3FD"/>
<path d="M21.4375 27.9981H6.5625C2.94394 27.9981 0 25.0542 0 21.4356V12.2333C0 10.1994 0.965453 8.24879 2.58273 7.01531L10.0202 1.34263C12.3635 -0.444613 15.6366 -0.444613 17.9798 1.34263L25.4173 7.01531C27.0345 8.24873 28 10.1994 28 12.2333V21.4356C28 25.0542 25.0561 27.9981 21.4375 27.9981ZM14 2.18832C13.064 2.18832 12.1279 2.4862 11.3468 3.08191L3.90928 8.75459C2.83117 9.57693 2.1875 10.8774 2.1875 12.2333V21.4356C2.1875 23.848 4.15013 25.8106 6.5625 25.8106H21.4375C23.8499 25.8106 25.8125 23.848 25.8125 21.4356V12.2333C25.8125 10.8774 25.1688 9.57698 24.0907 8.75464L16.6532 3.08196C15.8721 2.4862 14.936 2.18832 14 2.18832ZM17.9799 18.9973L23.2493 14.9771C23.7296 14.6107 23.8219 13.9244 23.4555 13.4441C23.0892 12.9639 22.4027 12.8715 21.9225 13.2379L16.6532 17.2581C15.091 18.4495 12.9089 18.4495 11.3455 17.2571L6.1308 13.2916C5.64998 12.9259 4.96377 13.0193 4.59812 13.5002C4.23248 13.981 4.32584 14.6672 4.80665 15.0328L10.0202 18.9974C11.1918 19.891 12.5958 20.3378 13.9999 20.3378C15.4041 20.3377 16.8083 19.8909 17.9799 18.9973Z" fill="#000091"/>
<path d="M10.5547 11.1C10.2755 11.1 9.99646 10.9939 9.78307 10.7815C9.35498 10.3554 9.35334 9.6628 9.77951 9.23465L11.5116 7.49449C12.899 6.10713 15.1539 6.1068 16.5398 7.49209L18.2749 9.23449C18.7012 9.66247 18.6998 10.355 18.2718 10.7813C17.8438 11.2075 17.1513 11.2061 16.725 10.778L14.9916 9.03745C14.4602 8.50638 13.5929 8.50654 13.0602 9.03953L11.3298 10.7779C11.1161 10.9926 10.8354 11.1 10.5547 11.1ZM15.1484 14.9829V11.5922C15.1484 10.9882 14.6587 10.4985 14.0546 10.4985C13.4506 10.4985 12.9609 10.9882 12.9609 11.5922V14.9829C12.9609 15.5869 13.4506 16.0766 14.0546 16.0766C14.6587 16.0766 15.1484 15.5869 15.1484 14.9829Z" fill="#0063CB"/>
</svg>
