<svg width="24" height="24" viewBox="0 0 24 24" fill="none" xmlns="http://www.w3.org/2000/svg">
<g clip-path="url(#clip0_702_10835)">
<path d="M3.86775 12.1087C3.81356 6.46781 8.03423 1.75589 13.4749 1.03378C12.9931 0.970594 12.5009 0.9375 12 0.9375C5.87616 0.9375 0.879141 5.97398 0.938062 12.1087L0.9375 23.0625L1.12088 22.8791C1.88559 22.1144 2.85056 21.6281 3.86728 21.4488L3.86775 12.1087Z" fill="#E3E3FD"/>
<path d="M0.937311 24C0.816514 24 0.694733 23.9767 0.578718 23.9286C0.228375 23.7835 0 23.4416 0 23.0624L0.000562499 12.1126C-0.0289218 8.89742 1.20764 5.86157 3.48285 3.56437C5.75943 1.26586 8.78422 0 12 0C15.2397 0 18.2691 1.25723 20.5302 3.54009C22.7985 5.83025 24.0306 8.87651 23.9994 12.1176C23.9688 15.3095 22.6996 18.3 20.4255 20.5381C18.1572 22.7707 15.1495 24 11.956 24C11.9522 24 11.9482 24 11.9444 24C10.0553 24 8.25186 23.5763 6.58424 22.7406C4.99087 21.9421 3.06173 22.264 1.78382 23.542L1.60045 23.7254C1.42111 23.9047 1.18125 24 0.937311 24ZM4.74688 20.4305C5.65729 20.4305 6.57322 20.6378 7.42433 21.0644C8.82865 21.7681 10.3497 22.125 11.9452 22.125C11.9482 22.125 11.952 22.125 11.9549 22.125C17.5106 22.1254 22.0714 17.6289 22.1245 12.0996C22.1508 9.3627 21.1115 6.79147 19.198 4.85957C17.2918 2.93493 14.7355 1.875 12 1.875C9.2884 1.875 6.73677 2.94356 4.81504 4.8838C2.8934 6.824 1.84945 9.38661 1.87551 12.0996C1.87556 12.1026 1.87556 12.1057 1.87556 12.1087L1.87509 21.1587C2.76346 20.6783 3.75177 20.4305 4.74688 20.4305Z" fill="#000091"/>
<path d="M12 17.0123C11.3711 17.0124 10.7424 16.8159 10.2176 16.4229C8.05209 14.8015 6.88547 12.8594 6.84394 10.8067C6.8438 10.8004 6.84375 10.794 6.84375 10.7878C6.84375 9.10411 8.21058 7.73438 9.89062 7.73438C10.7085 7.73438 11.4522 8.05828 12 8.58459C12.5479 8.05828 13.2915 7.73438 14.1094 7.73438C15.7894 7.73438 17.1562 9.10411 17.1562 10.7877C17.1562 10.794 17.1562 10.8004 17.1561 10.8067C17.1145 12.8594 15.948 14.8015 13.7824 16.4229C13.2577 16.8158 12.6288 17.0123 12 17.0123ZM8.7188 10.779C8.76103 12.6114 10.1676 14.0431 11.3414 14.922C11.7292 15.2124 12.2708 15.2123 12.6585 14.9221C13.8324 14.0431 15.239 12.6114 15.2812 10.779C15.2766 10.1333 14.7527 9.60938 14.1094 9.60938C13.4632 9.60938 12.9375 10.1351 12.9375 10.7813C12.9375 11.299 12.5178 11.7188 12 11.7188C11.4822 11.7188 11.0625 11.299 11.0625 10.7813C11.0625 10.1351 10.5368 9.60938 9.89062 9.60938C9.24736 9.60938 8.72344 10.1333 8.7188 10.779Z" fill="#0063CB"/>
</g>
<defs>
<clipPath id="clip0_702_10835">
<rect width="24" height="24" fill="white"/>
</clipPath>
</defs>
</svg>
