<svg width="28" height="29" viewBox="0 0 28 29" fill="none" xmlns="http://www.w3.org/2000/svg">
<g clip-path="url(#clip0_836_163812)">
<path d="M9.81107 27.4136H6.4964C3.48129 27.4136 1.03711 25.0029 1.03711 22.0293V7.38395C1.03711 4.41024 3.48129 1.99963 6.4964 1.99963H9.81107C6.80452 1.99963 4.36728 4.40927 4.36728 7.38174V22.0315C4.36728 25.0039 6.80452 27.4136 9.81107 27.4136ZM17.688 21.2216C17.688 18.469 19.5093 16.1364 22.0281 15.3308C21.4176 15.1356 20.7664 15.0297 20.09 15.0297C16.6227 15.0297 13.8119 17.8019 13.8119 21.2216C13.8119 24.6414 16.6227 27.4136 20.09 27.4136C20.7664 27.4136 21.4176 27.3076 22.0281 27.1124C19.5093 26.3069 17.688 23.9742 17.688 21.2216Z" fill="#E3E3FD"/>
<path d="M11.8467 28.4905H6.55115C2.93885 28.4905 0 25.592 0 22.0293V7.38396C0 3.82127 2.93885 0.922791 6.55115 0.922791H16.5962C20.2086 0.922791 23.1474 3.82127 23.1474 7.38396V10.8838C23.1474 11.4785 22.6586 11.9606 22.0555 11.9606C21.4525 11.9606 20.9637 11.4785 20.9637 10.8838V7.38396C20.9637 5.00884 19.0045 3.07652 16.5962 3.07652H6.55115C4.14295 3.07652 2.18372 5.00884 2.18372 7.38396V22.0293C2.18372 24.4044 4.14295 26.3367 6.55115 26.3367H11.8467C12.4497 26.3367 12.9385 26.8189 12.9385 27.4136C12.9385 28.0084 12.4497 28.4905 11.8467 28.4905ZM17.4697 6.19942C17.4697 5.60466 16.9809 5.12255 16.3779 5.12255C15.7748 5.12255 15.286 5.60466 15.286 6.19942C15.286 7.09009 14.5513 7.81471 13.6482 7.81471H9.49917C8.59609 7.81471 7.86138 7.09009 7.86138 6.19942C7.86138 5.60466 7.37256 5.12255 6.76952 5.12255C6.16649 5.12255 5.67766 5.60466 5.67766 6.19942C5.67766 8.27765 7.39199 9.96843 9.49917 9.96843H13.6482C15.7554 9.96843 17.4697 8.27765 17.4697 6.19942ZM27.9516 21.2216C27.9516 17.2136 24.6454 13.9528 20.5815 13.9528C16.5177 13.9528 13.2115 17.2136 13.2115 21.2216C13.2115 25.2297 16.5177 28.4905 20.5815 28.4905C24.6454 28.4905 27.9516 25.2297 27.9516 21.2216ZM25.7679 21.2216C25.7679 24.0421 23.4413 26.3367 20.5815 26.3367C17.7218 26.3367 15.3952 24.0421 15.3952 21.2216C15.3952 18.4012 17.7218 16.1065 20.5815 16.1065C23.4413 16.1065 25.7679 18.4012 25.7679 21.2216Z" fill="#000091"/>
<path d="M22.4375 22.2985H20.5821C19.9791 22.2985 19.4902 21.8164 19.4902 21.2216V19.0141C19.4902 18.4193 19.9791 17.9372 20.5821 17.9372C21.1851 17.9372 21.674 18.4193 21.674 19.0141V20.1448H22.4375C23.0406 20.1448 23.5294 20.6269 23.5294 21.2216C23.5294 21.8164 23.0406 22.2985 22.4375 22.2985Z" fill="#0063CB"/>
</g>
<defs>
<clipPath id="clip0_836_163812">
<rect width="27.9516" height="27.5677" fill="white" transform="translate(0 0.922791)"/>
</clipPath>
</defs>
</svg>
