<svg width="28" height="28" viewBox="0 0 28 28" fill="none" xmlns="http://www.w3.org/2000/svg">
<path d="M15.6906 20.0564C15.1549 20.2077 14.5889 20.2891 14 20.2891C10.5266 20.2891 7.71094 17.4734 7.71094 14C7.71094 10.5266 10.5266 7.71094 14 7.71094C14.5889 7.71094 15.1549 7.79231 15.6906 7.94363C13.0432 8.68531 11.1016 11.1158 11.1016 14C11.1016 16.8842 13.0432 19.3148 15.6906 20.0564ZM4.375 14C4.375 7.42788 9.28736 2.00309 15.6406 1.19711C15.1034 1.12891 14.5558 1.09375 14 1.09375C6.87209 1.09375 1.09375 6.87209 1.09375 14C1.09375 21.1279 6.87209 26.9062 14 26.9062C14.5558 26.9062 15.1034 26.8711 15.6406 26.8029C9.28736 25.9969 4.375 20.5721 4.375 14Z" fill="#E3E3FD"/>
<path d="M14 28C10.2605 28 6.74477 26.5437 4.10047 23.8995C1.45627 21.2553 0 17.7395 0 14C0 10.2605 1.45627 6.74477 4.10047 4.10047C6.74477 1.45627 10.2605 0 14 0C18.502 0 22.7588 2.17301 25.3868 5.81284C25.7404 6.30263 25.63 6.98627 25.1402 7.33988C24.6506 7.69349 23.9669 7.58308 23.6132 7.09335C21.3953 4.0215 17.8016 2.1875 14 2.1875C7.48655 2.1875 2.1875 7.48661 2.1875 14C2.1875 20.5134 7.48655 25.8125 14 25.8125C17.8016 25.8125 21.3953 23.9785 23.6132 20.9066C23.9669 20.4169 24.6506 20.3065 25.1402 20.6601C25.63 21.0137 25.7404 21.6973 25.3868 22.1871C22.7588 25.827 18.502 28 14 28ZM19.27 19.136C19.6903 18.7021 19.6792 18.0096 19.2453 17.5894C18.8113 17.1691 18.119 17.1802 17.6987 17.6141C16.7111 18.6337 15.3975 19.1953 14 19.1953C11.1353 19.1953 8.80469 16.8647 8.80469 14C8.80469 11.1353 11.1353 8.80469 14 8.80469C15.3975 8.80469 16.7111 9.36627 17.6987 10.386C18.119 10.8199 18.8115 10.8309 19.2453 10.4107C19.6792 9.99042 19.6903 9.29797 19.27 8.86408C17.8666 7.41513 15.995 6.61719 14 6.61719C9.92912 6.61719 6.61719 9.92912 6.61719 14C6.61719 18.0709 9.92912 21.3828 14 21.3828C15.9951 21.3828 17.8667 20.5849 19.27 19.136Z" fill="#000091"/>
<path d="M26.3859 15.112C26.0867 14.8145 25.9218 14.4195 25.9218 13.9996C25.9218 13.5798 26.0867 13.1848 26.3859 12.8873L27.6773 11.6034C28.1057 11.1775 28.1078 10.485 27.6818 10.0567C27.2559 9.62818 26.5633 9.62622 26.1351 10.0521L24.8436 11.336C24.3956 11.7814 24.0737 12.319 23.8956 12.9059H14C13.3959 12.9059 12.9062 13.3956 12.9062 13.9997C12.9062 14.6038 13.3959 15.0934 14 15.0934H23.8956C24.0737 15.6803 24.3956 16.218 24.8436 16.6634L26.1351 17.9472C26.3485 18.1593 26.6273 18.2653 26.9062 18.2653C27.1872 18.2653 27.4681 18.1576 27.6819 17.9426C28.1078 17.5142 28.1057 16.8217 27.6774 16.3958L26.3859 15.112Z" fill="#0063CB"/>
</svg>
