<svg width="28" height="29" viewBox="0 0 28 29" fill="none" xmlns="http://www.w3.org/2000/svg">
<g clip-path="url(#clip0_836_163582)">
<path d="M6.76962 22.0316V7.38186C6.76962 4.4094 9.20687 1.99976 12.2134 1.99976H8.89875C5.88363 1.99976 3.43945 4.41037 3.43945 7.38407V22.0294C3.43945 25.003 5.88363 27.4137 8.89875 27.4137H12.2134C9.20687 27.4137 6.76962 25.0041 6.76962 22.0316Z" fill="#E3E3FD"/>
<path d="M18.9986 28.4905H8.9535C5.34119 28.4905 2.40234 25.592 2.40234 22.0294V7.38403C2.40234 3.82133 5.34119 0.922852 8.9535 0.922852H18.9986C22.6109 0.922852 25.5497 3.82133 25.5497 7.38403V22.0294C25.5497 25.592 22.6109 28.4905 18.9986 28.4905ZM8.9535 3.07658C6.54529 3.07658 4.58606 5.0089 4.58606 7.38403V22.0294C4.58606 24.4045 6.54529 26.3368 8.9535 26.3368H18.9986C21.4068 26.3368 23.366 24.4045 23.366 22.0294V7.38403C23.366 5.0089 21.4068 3.07658 18.9986 3.07658H8.9535ZM21.1277 10.83C21.1277 10.2352 20.6389 9.75312 20.0359 9.75312H18.1797C17.2766 9.75312 16.5419 9.0285 16.5419 8.13783V6.30716C16.5419 5.71241 16.0531 5.2303 15.4501 5.2303C14.847 5.2303 14.3582 5.71241 14.3582 6.30716V8.13783C14.3582 10.2161 16.0725 11.9068 18.1797 11.9068H20.0359C20.6389 11.9068 21.1277 11.4247 21.1277 10.83Z" fill="#000091"/>
<path d="M12.9456 21.7601C12.0368 21.7601 11.1829 21.4086 10.5411 20.7702L8.45122 18.6912C8.02671 18.2688 8.02966 17.587 8.45788 17.1683C8.88616 16.7496 9.57742 16.7526 10.002 17.1749L12.0919 19.2538C12.3204 19.4812 12.6236 19.6064 12.9456 19.6064C13.2676 19.6064 13.5708 19.4812 13.7994 19.2538L18.1151 14.9706C18.5403 14.5487 19.2315 14.5467 19.6592 14.9658C20.0869 15.3851 20.0891 16.0669 19.664 16.4887L15.3492 20.771C14.7083 21.4086 13.8544 21.7601 12.9456 21.7601Z" fill="#0063CB"/>
</g>
<defs>
<clipPath id="clip0_836_163582">
<rect width="27.9516" height="27.5677" fill="white" transform="translate(0 0.922852)"/>
</clipPath>
</defs>
</svg>
